<svg width="32" height="32" viewBox="0 0 32 32" fill="none" xmlns="http://www.w3.org/2000/svg">
<path d="M26.4 0H5.6C2.50721 0 0 2.50721 0 5.6V26.4C0 29.4928 2.50721 32 5.6 32H26.4C29.4928 32 32 29.4928 32 26.4V5.6C32 2.50721 29.4928 0 26.4 0Z" fill="#EBEBE9"/>
<path d="M9.01 11.77H4.495V28.13H9.01V11.77Z" fill="#22162B"/>
<path d="M24.1 11.7701C20.77 10.5001 18.36 12.6501 17.33 13.8501V11.7701H12.83V28.1301H17.33V19.5001C17.3044 18.4063 17.7041 17.3452 18.445 16.5401C18.6565 16.2912 18.9171 16.0885 19.2104 15.9449C19.5038 15.8012 19.8236 15.7196 20.15 15.7051C20.515 15.6981 20.8776 15.765 21.2161 15.9016C21.5547 16.0382 21.8621 16.2418 22.12 16.5001C22.6792 17.0846 22.9848 17.8664 22.97 18.6751V28.1301H28.05V18.0001C28.05 18.0001 28.615 13.4601 24.1 11.7701Z" fill="#22162B"/>
<path d="M6.74999 9.51012C8.30744 9.51012 9.56999 8.24756 9.56999 6.69012C9.56999 5.13267 8.30744 3.87012 6.74999 3.87012C5.19255 3.87012 3.92999 5.13267 3.92999 6.69012C3.92999 8.24756 5.19255 9.51012 6.74999 9.51012Z" fill="#22162B"/>
</svg>
