<svg width="146" height="147" viewBox="0 0 146 147" fill="none" xmlns="http://www.w3.org/2000/svg">
<rect y="0.125" width="146" height="146" rx="73" fill="#E94A37"/>
<path d="M96.9021 69.0946H74.3081V73.6956H96.9021V69.0946Z" fill="#EBEBE9"/>
<path d="M96.9021 81.2216H74.3081V85.8225H96.9021V81.2216Z" fill="#EBEBE9"/>
<path d="M96.9021 93.3324H74.3081V97.9334H96.9021V93.3324Z" fill="#EBEBE9"/>
<path d="M62.6892 69.1832H54.1479V97.7883H62.6892V69.1832Z" fill="#EBEBE9"/>
<path d="M58.4182 59.9652C62.1163 59.9652 65.1142 56.9673 65.1142 53.2692C65.1142 49.5711 62.1163 46.5732 58.4182 46.5732C54.7201 46.5732 51.7222 49.5711 51.7222 53.2692C51.7222 56.9673 54.7201 59.9652 58.4182 59.9652Z" fill="#EBEBE9"/>
<path d="M92.6478 32.875H38V109.875H115V55.888L92.6478 32.875ZM107.885 54.3328L93.663 54.1878L93.5986 39.6193L107.885 54.3328ZM110.971 105.846H42.0289V36.9039H89.5697L89.6825 58.1764L110.995 58.3859L110.971 105.846Z" fill="#EBEBE9"/>
</svg>
