<svg xmlns="http://www.w3.org/2000/svg" viewBox="0 0 235.12 248.86"><defs><style>.cls-1{fill:#ebebe9;}</style></defs><g id="Layer_2" data-name="Layer 2"><g id="Layer_2-2" data-name="Layer 2"><path class="cls-1" d="M146,65.6l-26.5,40.23a50.6,50.6,0,0,0-23.55.48q-2.34.61-4.58,1.44a50.25,50.25,0,0,0-18.53,12V52.32A3.07,3.07,0,0,1,76,49.25h17A3.07,3.07,0,0,1,96,52.32v48.47L119.17,65.6c.83-1.14,2-3.08,3.72-3.08H144.6C146.29,62.52,147,64,146,65.6Z"/><path class="cls-1" d="M180.23,188.41,138.91,134s-10.18-15.64-29.09-15.64v0l-1.07,0a36.47,36.47,0,1,0,31.4,55l12.07,15.78a4.17,4.17,0,0,0,3.32,1.65h23.51A1.48,1.48,0,0,0,180.23,188.41Zm-71.48-21.14a12.47,12.47,0,1,1,12.47-12.47A12.48,12.48,0,0,1,108.75,167.27Z"/><path class="cls-1" d="M21.14,73.44,8.44,66l1.67-2.84,12.7,7.42Zm4.5-7.69L16,67l-3.16-8.51L14.89,55l3.32,9.48-1.15-.68,10.65-1.57Z"/><path class="cls-1" d="M30.87,57.74l-7.34-14,1.94-2.26,14.91,5.23-2.27,2.64L26,44.72l.79-.92,6.29,11.37ZM31,53.49l-2-1.74,5.23-6.06,2,1.74Z"/><path class="cls-1" d="M45.68,41.83,36.47,30.36,39,28.3l9.21,11.47Zm-1.82-6.29-1.54-1.92,2.42-1.94a2.17,2.17,0,0,0,.87-1.32A1.68,1.68,0,0,0,45.2,29,1.76,1.76,0,0,0,44,28.3a2,2,0,0,0-1.48.52l-2.44,2-1.6-2,2.72-2.19a5.79,5.79,0,0,1,2.36-1.19,4.25,4.25,0,0,1,2.3.12,4.07,4.07,0,0,1,1.88,1.35,4.17,4.17,0,0,1,.95,2.19,4.25,4.25,0,0,1-.41,2.27,6,6,0,0,1-1.73,2.08Zm8.06,1.28-7.54-2.07,1.83-2.54L55,34.38Z"/><path class="cls-1" d="M60.88,30.55,53.76,17.68l2.88-1.59L63.76,29ZM57.34,18.94,56,16.46l7-3.85,1.37,2.48Zm2.78,5-1.34-2.42L65.2,18l1.34,2.42Zm3,5.36-1.37-2.48,7.07-3.91,1.37,2.48Z"/><path class="cls-1" d="M77.34,22.19,72.69,8.24l2.19-.74L76.74,10l3.73,11.17ZM87,19l-11.72-7.8L74.88,7.5l11.74,7.8Zm0,0-1.76-2.51L81.48,5.3l3.15-1,4.65,14Z"/><path class="cls-1" d="M105.63,15.07,110.81.13l3-.13,6.39,14.45-3.48.15-4.9-12,1.2,0-4,12.37Zm3.22-2.79-.12-2.66,8-.34.11,2.67Z"/><path class="cls-1" d="M127.39,15,129.31.43l3.26.43-1.92,14.58Zm2.52.33.37-2.85,7.21.95-.37,2.85Z"/><path class="cls-1" d="M143.11,17.44l10-12.28,2.84.89L157,21.82l-3.32-1.05-.53-12.95,1.15.37-8,10.27Zm4-1.52.8-2.54,7.63,2.4-.8,2.54Z"/><path class="cls-1" d="M163.56,24.76l6.91-13,2.91,1.55-6.92,13Zm5.06-4.15,1.16-2.17,2.74,1.46a2.13,2.13,0,0,0,1.55.27,1.7,1.7,0,0,0,1.1-.91,1.76,1.76,0,0,0,.15-1.41,2,2,0,0,0-1.07-1.16l-2.76-1.47L172.7,13l3.09,1.64a5.71,5.71,0,0,1,2,1.7,4.19,4.19,0,0,1,.79,2.16,4.09,4.09,0,0,1-.5,2.26,4.19,4.19,0,0,1-1.64,1.74,4.25,4.25,0,0,1-2.25.51,5.94,5.94,0,0,1-2.59-.77Zm2,7.91-1.07-7.75,3.06.69,1.45,8.89Z"/><path class="cls-1" d="M185.21,38.72a8,8,0,0,1-2-2.34,7.5,7.5,0,0,1-.72-5.71,8,8,0,0,1,3.7-4.69,7.18,7.18,0,0,1,2.78-.88,7.59,7.59,0,0,1,2.91.26,8,8,0,0,1,2.76,1.45,8.12,8.12,0,0,1,2.1,2.37,7.56,7.56,0,0,1,.92,2.68l-3.12.39a3.78,3.78,0,0,0-.48-1.63,4.79,4.79,0,0,0-1.28-1.46,4.68,4.68,0,0,0-1.57-.83,4.24,4.24,0,0,0-1.66-.12,4.1,4.1,0,0,0-1.6.59,5.77,5.77,0,0,0-2.32,2.94,4.34,4.34,0,0,0-.2,1.7,4.11,4.11,0,0,0,.5,1.59,4.75,4.75,0,0,0,1.18,1.33,5.14,5.14,0,0,0,1.75,1,4.06,4.06,0,0,0,1.73.1l.37,3.13a7.52,7.52,0,0,1-2.86-.28A8.51,8.51,0,0,1,185.21,38.72Z"/><path class="cls-1" d="M199.13,52.19a7.93,7.93,0,0,1-1.58-2.72,7.54,7.54,0,0,1-.4-2.93,7.28,7.28,0,0,1,.76-2.84,7.55,7.55,0,0,1,1.88-2.4,7.5,7.5,0,0,1,5.53-1.87,7.23,7.23,0,0,1,2.82.81,7.94,7.94,0,0,1,2.45,1.95,8.17,8.17,0,0,1,1.57,2.68,7.68,7.68,0,0,1,.4,2.92,7,7,0,0,1-.75,2.82,7.73,7.73,0,0,1-1.9,2.4,7.53,7.53,0,0,1-5.53,1.88,7.64,7.64,0,0,1-2.82-.79A7.84,7.84,0,0,1,199.13,52.19Zm2.24-2a4.4,4.4,0,0,0,1.94,1.35,4,4,0,0,0,2.23.09,5,5,0,0,0,2.19-1.16,5.59,5.59,0,0,0,1.2-1.46,4.32,4.32,0,0,0,.52-1.63,4,4,0,0,0-.21-1.67,4.82,4.82,0,0,0-.91-1.55,4.59,4.59,0,0,0-1.94-1.37,3.9,3.9,0,0,0-2.22-.1A5,5,0,0,0,202,43.85a5.42,5.42,0,0,0-1.23,1.48,4,4,0,0,0-.52,1.64,3.91,3.91,0,0,0,.19,1.66A4.68,4.68,0,0,0,201.37,50.19Zm8.9-9.71.49-1.82,4.5.48-.72,3Z"/><path class="cls-1" d="M208.67,64.2,221.48,57l1.14,2-2.08,2.3-10.25,5.79Zm5,8.84,5.42-13L222.62,59l-5.41,13Zm0,0,2.13-2.21L226,65l1.63,2.88-12.81,7.24Z"/><path class="cls-1" d="M6.48,179.58,17,167.84,18.61,171,10,180.23,9.32,179l12.57-1.53,1.59,3.09L7.77,182.1Z"/><path class="cls-1" d="M15.47,194.87l12-8.5,1.9,2.69-12,8.5Z"/><path class="cls-1" d="M26.29,208.8a7.72,7.72,0,0,1-1.69-2.7,6.88,6.88,0,0,1-.29-3l3,.12a5.39,5.39,0,0,0,.14,2,4.31,4.31,0,0,0,1,1.78,2.83,2.83,0,0,0,1.36.91,1.19,1.19,0,0,0,1.16-.3,1.3,1.3,0,0,0,.46-.91,3.06,3.06,0,0,0-.2-1.17c-.15-.43-.33-.88-.54-1.34s-.4-1-.57-1.47a6,6,0,0,1-.32-1.54,3.46,3.46,0,0,1,.23-1.57,4.18,4.18,0,0,1,1.11-1.53A4.09,4.09,0,0,1,33.35,197a4.14,4.14,0,0,1,2.35.34A6.91,6.91,0,0,1,37.9,199a7.28,7.28,0,0,1,1.52,2.45,5.82,5.82,0,0,1,.35,2.54l-3-.12a5,5,0,0,0-.16-1.69,3.31,3.31,0,0,0-.78-1.33,2.51,2.51,0,0,0-1.15-.78,1.06,1.06,0,0,0-1,.26,1.18,1.18,0,0,0-.39.88,3.39,3.39,0,0,0,.23,1.13c.16.41.34.86.55,1.33s.41,1,.59,1.48a5.58,5.58,0,0,1,.29,1.56,4,4,0,0,1-1.45,3.2A4,4,0,0,1,30,211.05,6.59,6.59,0,0,1,26.29,208.8Z"/><path class="cls-1" d="M42.24,223.4a6.32,6.32,0,0,1-2.07-2.58,5.59,5.59,0,0,1-.41-3A6,6,0,0,1,41,214.87l5.43-7.07,2.61,2L43.53,217a3,3,0,0,0-.63,1.46,2.49,2.49,0,0,0,.22,1.4,3.23,3.23,0,0,0,2.29,1.76,2.35,2.35,0,0,0,1.38-.17,3.2,3.2,0,0,0,1.21-1l5.55-7.22,2.62,2-5.45,7.09a6.09,6.09,0,0,1-2.49,2,5.69,5.69,0,0,1-3,.39A6.38,6.38,0,0,1,42.24,223.4Z"/><path class="cls-1" d="M54.53,231.72l11.93-10.38,2.65,1.37-1.66,15.72-3.09-1.6L66.08,224l1.07.56-9.61,8.75Zm4.17-.81,1.23-2.37,7.1,3.69-1.22,2.36Z"/><path class="cls-1" d="M76.1,241.77l4.48-14,3.14,1-4.49,14Zm2.42.77.87-2.74L86.32,242l-.88,2.74Z"/><path class="cls-1" d="M105.5,248.55l.75-14.7,3.29.17-.75,14.69Zm2.25.11.15-2.87,3.62.18a4.65,4.65,0,0,0,2.34-.42,3.75,3.75,0,0,0,1.61-1.47,5.5,5.5,0,0,0,.24-4.79,3.82,3.82,0,0,0-1.46-1.62A4.83,4.83,0,0,0,112,237l-3.72-.19.15-2.88,3.76.2a8.46,8.46,0,0,1,3,.68,7.31,7.31,0,0,1,2.38,1.65,7,7,0,0,1,1.52,2.4,7.53,7.53,0,0,1,.43,3,7.43,7.43,0,0,1-.73,2.91,7,7,0,0,1-1.75,2.25,7.31,7.31,0,0,1-2.52,1.4,8.21,8.21,0,0,1-3.08.39Z"/><path class="cls-1" d="M128.92,248.71l-1.8-14.6,3.27-.41,1.8,14.6Zm1.05-12.1-.35-2.81,7.9-1,.35,2.81Zm.7,5.71-.34-2.75,7.28-.9.34,2.75Zm.75,6.08-.34-2.82,8-1,.35,2.82Z"/><path class="cls-1" d="M153.05,244.42a7.65,7.65,0,0,1-3.17.31,7,7,0,0,1-2.77-1.06l1.45-2.64a5.36,5.36,0,0,0,1.86.78,4.45,4.45,0,0,0,2.06-.13,2.82,2.82,0,0,0,1.42-.82,1.22,1.22,0,0,0,.26-1.17,1.32,1.32,0,0,0-.62-.81,3,3,0,0,0-1.13-.35,12.77,12.77,0,0,0-1.44-.11,14.35,14.35,0,0,1-1.57-.15,6.37,6.37,0,0,1-1.53-.4,3.43,3.43,0,0,1-1.29-.91,4.12,4.12,0,0,1-.88-1.67A4,4,0,0,1,147,230.9a6.77,6.77,0,0,1,2.44-1.24,7.22,7.22,0,0,1,2.88-.27,6.09,6.09,0,0,1,2.42.82l-1.46,2.66a4.89,4.89,0,0,0-1.58-.61,3.39,3.39,0,0,0-1.54.1,2.47,2.47,0,0,0-1.21.69,1,1,0,0,0-.22,1,1.15,1.15,0,0,0,.6.74,3.45,3.45,0,0,0,1.12.3c.44,0,.92.08,1.44.1s1.05.07,1.58.14a5.47,5.47,0,0,1,1.53.44,4.14,4.14,0,0,1,1.31,1,4.29,4.29,0,0,1,.9,1.76,4,4,0,0,1-.52,3.59A6.57,6.57,0,0,1,153.05,244.42Z"/><path class="cls-1" d="M167.22,239.16l-5.93-13.46,3-1.33,5.93,13.46Z"/><path class="cls-1" d="M185.56,229.77a7.63,7.63,0,0,1-8.49-.1,7.39,7.39,0,0,1-3-8,8,8,0,0,1,3.53-4.85,8.44,8.44,0,0,1,3.3-1.26,7.14,7.14,0,0,1,3.2.22l-.69,3.11a4.46,4.46,0,0,0-2.15-.28,4.8,4.8,0,0,0-2.07.76,4.57,4.57,0,0,0-1.64,1.72,4,4,0,0,0-.49,2.21,5.37,5.37,0,0,0,2.57,4.06,4.18,4.18,0,0,0,4.39-.15,4.58,4.58,0,0,0,1.58-1.58,3.37,3.37,0,0,0,.41-2,4.8,4.8,0,0,0-.79-2.17l2.63.06L182.2,225l-1.48-2.34,6.52-4.14.26.4a9.56,9.56,0,0,1,1.58,4.26,6.51,6.51,0,0,1-.75,3.72A7.76,7.76,0,0,1,185.56,229.77Z"/><path class="cls-1" d="M199.43,219.42l-10.08-10.71,1.68-1.59,2.73,1.47,8.07,8.57Zm7.39-7-13.91-2.16L191,207.12,205,209.27Zm0,0-2.65-1.54-8.07-8.57,2.41-2.27,10.08,10.71Z"/><path class="cls-1" d="M215.53,202.85l-11.79-8.8,2-2.64,11.79,8.81Zm-8-9.12-2.27-1.7,4.77-6.38,2.27,1.7Zm4.61,3.44-2.22-1.66,4.39-5.88,2.22,1.66Zm4.91,3.66-2.27-1.69,4.84-6.48,2.27,1.7Z"/><path class="cls-1" d="M227.12,185.93,214,179.21l1.51-2.93L228.62,183Zm-4.22-5-2.19-1.13,1.42-2.76a2.19,2.19,0,0,0,.25-1.56,1.7,1.7,0,0,0-.93-1.08,1.75,1.75,0,0,0-1.41-.13,2.09,2.09,0,0,0-1.15,1.09l-1.42,2.78L215.19,177l1.59-3.12a5.64,5.64,0,0,1,1.68-2,4.17,4.17,0,0,1,6.71,3.49,6.09,6.09,0,0,1-.72,2.61Zm7.87-2.12L223.05,180l.63-3.07,8.88-1.58Z"/><circle class="cls-1" cx="6.37" cy="90.5" r="1.86"/><circle class="cls-1" cx="1.86" cy="118.51" r="1.86"/><circle class="cls-1" cx="4.65" cy="148.41" r="1.86"/><circle class="cls-1" cx="230.45" cy="148.52" r="1.86"/><circle class="cls-1" cx="233.27" cy="118.56" r="1.86"/><circle class="cls-1" cx="228.7" cy="90.34" r="1.86"/></g></g></svg>