<svg width="146" height="147" viewBox="0 0 146 147" fill="none" xmlns="http://www.w3.org/2000/svg">
<rect y="0.875" width="146" height="146" rx="73" fill="#E94A37"/>
<path d="M107 54V34H72.203V41.3333H42.5427V64H27V84H42.5427V105.273H72.203V114H107V94H72.203V100.607H47.1823V84H61.797V64H47.2154V46H72.203V54H87.3148V64H72.203V84H107V64H91.9544V54H107ZM76.8426 98.6667H102.36V109.333H76.8426V98.6667ZM57.1574 79.3333H31.6396V68.6667H57.1574V79.3333ZM102.36 79.3333H76.8426V68.6667H102.36V79.3333ZM76.8426 38.6667H102.36V49.3333H76.8426V38.6667Z" fill="#EBEBE9"/>
</svg>
