<svg width="88" height="89" viewBox="0 0 88 89" fill="none" xmlns="http://www.w3.org/2000/svg">
<rect width="88" height="88" rx="13" fill="#334247"/>
<path d="M38.7232 63.855C36.9562 63.855 35.2177 63.6555 33.5077 63.2565C31.8167 62.8765 30.2777 62.354 28.8907 61.689C27.5037 61.024 26.4112 60.264 25.6132 59.409L28.4347 51.942C29.4987 53.158 30.9142 54.127 32.6812 54.849C34.4672 55.552 36.2817 55.9035 38.1247 55.9035C39.5117 55.9035 40.7277 55.685 41.7727 55.248C42.8177 54.792 43.6252 54.1555 44.1952 53.3385C44.7842 52.5215 45.0787 51.562 45.0787 50.46C45.0787 48.731 44.4422 47.3915 43.1692 46.4415C41.9152 45.4915 40.2812 45.0165 38.2672 45.0165C37.5452 45.0165 36.7852 45.0735 35.9872 45.1875C35.2082 45.2825 34.4102 45.4345 33.5932 45.6435L31.0852 39.744L41.5162 30.738H26.0692V23.1H52.1467V30.1395L42.5137 39.459C44.4327 39.592 46.2567 40.1145 47.9857 41.0265C49.7147 41.9385 51.1302 43.24 52.2322 44.931C53.3342 46.603 53.8852 48.674 53.8852 51.144C53.8852 53.614 53.2392 55.8085 51.9472 57.7275C50.6552 59.6275 48.8692 61.1285 46.5892 62.2305C44.3092 63.3135 41.6872 63.855 38.7232 63.855ZM65.2246 63.855C63.6666 63.855 62.3081 63.361 61.1491 62.373C60.0091 61.385 59.4391 60.0455 59.4391 58.3545C59.4391 57.2145 59.6956 56.236 60.2086 55.419C60.7406 54.602 61.4436 53.9655 62.3176 53.5095C63.2106 53.0535 64.1796 52.8255 65.2246 52.8255C66.8016 52.8255 68.1601 53.3195 69.3001 54.3075C70.4401 55.2955 71.0101 56.6445 71.0101 58.3545C71.0101 59.4945 70.7441 60.473 70.2121 61.29C69.6801 62.107 68.9771 62.734 68.1031 63.171C67.2291 63.627 66.2696 63.855 65.2246 63.855Z" fill="#EBFF00"/>
</svg>
