<svg width="88" height="89" viewBox="0 0 88 89" fill="none" xmlns="http://www.w3.org/2000/svg">
<rect width="88" height="88" rx="13" fill="#334247"/>
<path d="M25.105 63V56.787L33.598 49.1775C36.22 46.8215 38.272 44.8645 39.754 43.3065C41.236 41.7485 42.281 40.3805 42.889 39.2025C43.497 38.0245 43.801 36.837 43.801 35.64C43.801 33.873 43.212 32.5145 42.034 31.5645C40.875 30.6145 39.2125 30.1395 37.0465 30.1395C35.3175 30.1395 33.655 30.4815 32.059 31.1655C30.463 31.8495 29.0285 32.8565 27.7555 34.1865L24.535 27.318C26.34 25.703 28.4205 24.4585 30.7765 23.5845C33.1325 22.6915 35.536 22.245 37.987 22.245C40.932 22.245 43.497 22.758 45.682 23.784C47.867 24.81 49.5485 26.2445 50.7265 28.0875C51.9235 29.9115 52.522 32.0395 52.522 34.4715C52.522 36.1055 52.199 37.7015 51.553 39.2595C50.907 40.8175 49.767 42.575 48.133 44.532C46.518 46.47 44.238 48.826 41.293 51.6L37.3885 55.248H53.5765V63H25.105ZM64.5308 63.855C62.9728 63.855 61.6143 63.361 60.4553 62.373C59.3153 61.385 58.7453 60.0455 58.7453 58.3545C58.7453 57.2145 59.0018 56.236 59.5148 55.419C60.0468 54.602 60.7498 53.9655 61.6238 53.5095C62.5168 53.0535 63.4858 52.8255 64.5308 52.8255C66.1078 52.8255 67.4663 53.3195 68.6063 54.3075C69.7463 55.2955 70.3163 56.6445 70.3163 58.3545C70.3163 59.4945 70.0503 60.473 69.5183 61.29C68.9863 62.107 68.2833 62.734 67.4093 63.171C66.5353 63.627 65.5758 63.855 64.5308 63.855Z" fill="#EBFF00"/>
</svg>
