<svg width="88" height="89" viewBox="0 0 88 89" fill="none" xmlns="http://www.w3.org/2000/svg">
<rect width="88" height="88" rx="13" fill="#334247"/>
<path d="M37.922 63V33.3315L28.916 36.5235L26.4365 29.142L45.959 22.245H46.586V63H37.922ZM60.6343 63.855C59.0763 63.855 57.7178 63.361 56.5588 62.373C55.4188 61.385 54.8488 60.0455 54.8488 58.3545C54.8488 57.2145 55.1053 56.236 55.6183 55.419C56.1503 54.602 56.8533 53.9655 57.7273 53.5095C58.6203 53.0535 59.5893 52.8255 60.6343 52.8255C62.2113 52.8255 63.5698 53.3195 64.7098 54.3075C65.8498 55.2955 66.4198 56.6445 66.4198 58.3545C66.4198 59.4945 66.1538 60.473 65.6218 61.29C65.0898 62.107 64.3868 62.734 63.5128 63.171C62.6388 63.627 61.6793 63.855 60.6343 63.855Z" fill="#EBFF00"/>
</svg>
