<svg width="146" height="147" viewBox="0 0 146 147" fill="none" xmlns="http://www.w3.org/2000/svg">
<rect y="0.875" width="146" height="146" rx="73" fill="#E94A37"/>
<g clip-path="url(#clip0_905_15)">
<path d="M50.5918 114C49.8839 114.019 49.1976 113.753 48.6835 113.262C48.1693 112.771 47.8693 112.093 47.8492 111.379V99.2107H36.1283C34.4743 99.1741 32.9018 98.479 31.7536 97.2769C30.6055 96.0748 29.9751 94.4633 29.9997 92.794V50.7375C29.9751 49.0682 30.6055 47.4567 31.7536 46.2546C32.9018 45.0525 34.4743 44.3574 36.1283 44.3208H68.3953L77.4503 34H103.934V54.518H114V111.379C113.98 112.093 113.68 112.771 113.165 113.262C112.651 113.753 111.965 114.019 111.257 114H50.5918ZM53.2118 108.588H108.637V59.9296H89.0334L79.2583 69.7325H53.2118V108.588ZM35.3622 93.799H47.8492V67.9312C47.8753 66.9496 48.2858 66.0185 48.9909 65.3418C49.6959 64.6651 50.6379 64.298 51.6107 64.3208H77.0443L86.8194 54.518H98.571V39.4117H79.8711L70.8161 49.7325H35.3622V93.799Z" fill="#EBEBE9"/>
</g>
<defs>
<clipPath id="clip0_905_15">
<rect width="84" height="80" fill="white" transform="translate(30 34)"/>
</clipPath>
</defs>
</svg>
