<svg width="101" height="99" viewBox="0 0 101 99" fill="none" xmlns="http://www.w3.org/2000/svg">
<g clip-path="url(#clip0_1074_158)">
<path d="M50.4999 62.465C49.8041 62.8146 49.4562 63.6304 49.6302 64.3879C50.152 66.2525 50.3259 68.1754 50.21 70.1566C50.094 71.9047 49.7461 73.6527 49.1084 75.2843C48.8185 75.9835 49.1084 76.7993 49.7461 77.2655L53.8047 80.0041L51.1956 83.9665L47.195 81.2861C46.5573 80.8199 45.6876 80.9364 45.1078 81.5191C42.4407 84.1995 38.904 86.0059 35.1933 86.5886C34.4396 86.7051 33.8598 87.3461 33.8018 88.1036L33.5119 92.7652L28.7576 92.4738L29.0475 87.8122C29.1055 87.0547 28.5837 86.2972 27.8299 86.1224C24.2352 85.1318 20.9304 82.8593 18.6112 79.8876C18.1474 79.2466 17.2777 79.0718 16.582 79.4214L12.2915 81.5774L10.2042 77.2655L14.5527 75.0512C15.2484 74.7016 15.5963 73.9441 15.4224 73.1866C15.0165 71.4968 14.8426 69.6904 14.9585 67.9423C15.0745 65.9612 15.5383 64.0965 16.2341 62.2902C16.524 61.5327 16.2921 60.7169 15.5963 60.2507L11.3638 57.3955L13.9729 53.4332L18.3213 56.3467C18.9591 56.7546 19.8288 56.6963 20.3506 56.1719C23.0177 53.6663 26.2645 52.0347 29.8592 51.5103C30.6129 51.3938 31.1927 50.7528 31.2507 49.9953L31.5986 44.6345L36.3529 44.9258L36.005 50.2866C35.947 51.0441 36.4689 51.8016 37.2226 51.9765C40.7014 52.967 43.7743 54.9482 46.0934 57.8034C46.5573 58.3861 47.427 58.5609 48.1227 58.2113L52.819 55.8805L54.9643 60.1925L50.4999 62.465ZM55.1962 52.967C54.7903 52.1513 53.8047 51.8016 52.993 52.2095L47.9488 54.7151C45.6296 52.2095 42.7886 50.3449 39.5997 49.2378L39.9476 43.5274C40.0056 42.5951 39.3098 41.8375 38.3822 41.7793L30.3231 41.2549C29.3954 41.1966 28.6417 41.8958 28.5837 42.8281L28.2358 48.5386C24.931 49.2378 21.8581 50.7528 19.249 52.967L14.5527 49.8205C14.2048 49.5874 13.741 49.4709 13.3351 49.5874C12.9293 49.6457 12.5234 49.937 12.2915 50.2866L7.82707 57.0459C7.30526 57.8034 7.53717 58.8523 8.29091 59.3184L12.8133 62.3484C12.2335 64.0965 11.8856 65.9029 11.7697 67.7675C11.6537 69.3991 11.7697 71.0889 12.0596 72.6622L7.36324 74.9929C6.55153 75.4008 6.20365 76.3914 6.6095 77.2072L10.2042 84.4326C10.3782 84.8405 10.726 85.1318 11.1319 85.2484C11.5377 85.3649 12.0016 85.3649 12.4074 85.1901L16.9878 82.9176C19.365 85.598 22.3799 87.6957 25.7427 88.8611L25.4528 93.8723C25.4528 94.3384 25.5687 94.7463 25.8586 95.0959C26.1485 95.4456 26.5544 95.6204 27.0182 95.6786L35.0774 96.2031C35.1353 96.2031 35.1353 96.2031 35.1933 96.2031C36.063 96.2031 36.7588 95.5038 36.8167 94.6298L37.1066 89.6186C40.5854 88.8611 43.8902 87.1713 46.5573 84.7822L50.7898 87.6374C51.1376 87.8705 51.6015 87.9871 52.0073 87.8705C52.4132 87.8122 52.819 87.5209 53.0509 87.1713L57.5154 80.412C58.0372 79.6545 57.8053 78.6057 57.0515 78.1395L52.6451 75.226C53.1089 73.6527 53.3988 72.0212 53.5148 70.3896C53.6307 68.525 53.5148 66.6604 53.1669 64.854L58.0372 62.4067C58.8489 61.9988 59.1968 61.0082 58.7909 60.1925L55.1962 52.967Z" fill="#DCF219"/>
<path d="M32.7006 55.4727C25.2792 55.4727 19.1914 61.5327 19.1914 69.0495C19.1914 76.508 25.2213 82.6263 32.7006 82.6263C33.6283 82.6263 34.324 81.8688 34.324 80.9947C34.324 80.0624 33.5703 79.3632 32.7006 79.3632C27.0766 79.3632 22.4962 74.7599 22.4962 69.1077C22.4962 63.4556 27.0766 58.8523 32.7006 58.8523C38.3246 58.8523 42.905 63.4556 42.905 69.1077C42.905 71.5551 42.0353 73.9441 40.4698 75.7505C39.89 76.4497 39.948 77.4986 40.6438 78.0813C41.3395 78.6639 42.3831 78.6057 42.9629 77.9064C45.0502 75.4591 46.2098 72.3126 46.2098 69.1077C46.1518 61.591 40.1219 55.4727 32.7006 55.4727Z" fill="#DCF219"/>
<path d="M76.7071 42.7698C74.7938 44.984 72.1847 46.499 69.3437 47.14C68.648 47.3148 68.1841 47.8975 68.1841 48.5967V52.0346H64.8793V48.5967C64.8793 47.8975 64.4155 47.2565 63.7197 47.14C60.8787 46.5573 58.2697 44.984 56.3564 42.7698C55.8925 42.2453 55.1388 42.1288 54.501 42.4784L51.4281 44.2265L49.7467 41.313L52.8776 39.5067C53.4574 39.157 53.7473 38.4578 53.5734 37.7586C53.1675 36.4766 52.9936 35.1364 52.9936 33.738C52.9936 32.223 53.2255 30.7662 53.6893 29.3678C53.9212 28.6685 53.6313 27.9693 53.0515 27.6197L49.8047 25.6968L51.4861 22.7833L54.8489 24.7062C55.4287 25.0558 56.1824 24.9393 56.6463 24.4148C58.5596 22.3754 60.9947 20.9769 63.7197 20.3942C64.4155 20.2194 64.8793 19.6367 64.8793 18.9375V14.9752H68.1841V18.9375C68.1841 19.6367 68.648 20.2777 69.3437 20.3942C72.0688 20.9769 74.5039 22.3754 76.4172 24.4148C76.881 24.9393 77.6348 25.0558 78.2146 24.7062L81.5774 22.7833L83.2588 25.6968L80.0119 27.6197C79.3742 27.9693 79.1422 28.7268 79.3742 29.3678C79.838 30.7662 80.0699 32.2812 80.0699 33.738C80.0699 35.0782 79.896 36.4184 79.4901 37.7586C79.3162 38.3995 79.5481 39.157 80.1859 39.5067L83.3167 41.313L81.6354 44.2265L78.5624 42.4784C77.9827 42.1288 77.1709 42.2453 76.7071 42.7698ZM82.563 47.7227C82.9689 47.6061 83.2588 47.373 83.4907 47.0234L86.6216 41.5461C87.0274 40.8469 86.7955 39.9145 86.0998 39.5067L82.679 37.5255C82.9689 36.3018 83.0848 35.0782 83.0848 33.7962C83.0848 32.3978 82.9109 30.9993 82.563 29.6008L86.0998 27.5614C86.7955 27.1535 87.0274 26.2212 86.6216 25.522L83.4907 20.0446C83.3167 19.695 82.9689 19.4619 82.563 19.3454C82.1572 19.2288 81.7513 19.2871 81.4614 19.5202L77.8087 21.6179C75.8954 19.8698 73.6922 18.5296 71.1991 17.8304V13.5184C71.1991 12.7027 70.5613 12.0034 69.6916 12.0034H63.4298C62.6181 12.0034 61.9224 12.6444 61.9224 13.5184V17.8304C59.4293 18.5296 57.2261 19.8698 55.3127 21.6179L51.6021 19.5202C50.9063 19.1123 49.9786 19.3454 49.5728 20.0446L46.4419 25.522C46.268 25.8716 46.21 26.2795 46.268 26.6291C46.3839 27.037 46.6158 27.3283 46.9637 27.5614L50.5004 29.6008C50.1526 30.941 49.9786 32.3395 49.9786 33.7962C49.9786 35.0782 50.0946 36.3018 50.3845 37.5255L46.9637 39.5067C46.268 39.9145 46.036 40.8469 46.4419 41.5461L49.5728 47.0234C49.7467 47.373 50.0946 47.6061 50.5004 47.7227C50.9063 47.8392 51.3122 47.7809 51.6021 47.5479L54.9069 45.625C56.8782 47.5479 59.2553 48.9463 61.8644 49.7621V53.5496C61.8644 54.3654 62.5022 55.0646 63.3719 55.0646H69.6336C70.4453 55.0646 71.1411 54.4237 71.1411 53.5496V49.7621C73.7502 49.0046 76.1273 47.5479 78.0986 45.625L81.4034 47.5479C81.7513 47.7809 82.1572 47.8392 82.563 47.7227Z" fill="#DCF219"/>
<path d="M66.5033 24.4731C61.4011 24.4731 57.2266 28.6686 57.2266 33.7963C57.2266 38.9823 61.4011 43.1777 66.5033 43.1777C67.315 43.1777 68.0107 42.5367 68.0107 41.6627C68.0107 40.8469 67.3729 40.1477 66.5033 40.1477C63.0245 40.1477 60.1835 37.2924 60.1835 33.7963C60.1835 30.3001 63.0245 27.4449 66.5033 27.4449C69.982 27.4449 72.823 30.3001 72.823 33.7963C72.823 35.3113 72.3012 36.768 71.3155 37.9334C70.7937 38.5744 70.8517 39.5067 71.4895 40.0311C72.1273 40.5555 73.0549 40.4973 73.5767 39.8563C75.0262 38.1665 75.8379 36.0105 75.8379 33.7963C75.8379 28.6686 71.6634 24.4731 66.5033 24.4731Z" fill="#DCF219"/>
<path d="M5.624 22.8418C4.17451 22.8418 2.95695 21.6764 2.95695 20.1614C2.95695 18.7047 4.11653 17.481 5.624 17.481C7.07348 17.481 8.29105 18.6464 8.29105 20.1614C8.23307 21.6182 7.07348 22.8418 5.624 22.8418ZM11.0161 21.6764H17.9736V38.4581C17.9736 39.2738 18.6114 39.9731 19.4811 39.9731C20.2928 39.9731 20.9885 39.3321 20.9885 38.4581V20.1614C20.9885 19.3457 20.3507 18.6464 19.4811 18.6464H11.0161C10.3783 16.2574 8.17509 14.5093 5.624 14.5093C2.55109 14.5093 0 17.0149 0 20.1614C0 23.2497 2.49311 25.8136 5.624 25.8136C8.17509 25.8136 10.3783 24.0655 11.0161 21.6764Z" fill="#DCF219"/>
<path d="M31.4242 2.97175C32.8736 2.97175 34.0912 4.13714 34.0912 5.65215C34.0912 7.10889 32.9316 8.33255 31.4242 8.33255C29.9747 8.33255 28.7571 7.16716 28.7571 5.65215C28.7571 4.19541 29.9747 2.97175 31.4242 2.97175ZM29.9167 11.0712V24.5898C29.9167 25.4055 30.5545 26.1048 31.4242 26.1048H39.4253C40.237 26.1048 40.9328 25.4638 40.9328 24.5898C40.9328 23.7157 40.295 23.0747 39.4253 23.0747H32.8736V11.0712C35.2508 10.4303 36.9902 8.21601 36.9902 5.65215C36.9902 2.56386 34.4971 0 31.3662 0C28.2933 0 25.7422 2.50559 25.7422 5.65215C25.8002 8.21601 27.5395 10.4303 29.9167 11.0712Z" fill="#DCF219"/>
<path d="M95.3762 77.3237C93.9268 77.3237 92.7092 76.1 92.7092 74.6433C92.7092 73.1865 93.8688 71.9629 95.3762 71.9629C96.8257 71.9629 98.0433 73.1282 98.0433 74.6433C98.0433 76.1 96.8257 77.3237 95.3762 77.3237ZM95.3762 68.9911C92.7672 68.9911 90.6219 70.7392 89.9842 73.1282H83.0266V54.0741C83.0266 53.2583 82.3889 52.5591 81.5192 52.5591C80.7075 52.5591 80.0117 53.2001 80.0117 54.0741V74.6433C80.0117 75.459 80.6495 76.1583 81.5192 76.1583H89.9842C90.6219 78.5473 92.8252 80.2954 95.3762 80.2954C98.4491 80.2954 101 77.7898 101 74.6433C101 71.555 98.4491 68.9911 95.3762 68.9911Z" fill="#DCF219"/>
<path d="M69.5747 95.9699C68.1252 95.9699 66.9077 94.8045 66.9077 93.2895C66.9077 91.8327 68.0672 90.6091 69.5747 90.6091C71.0242 90.6091 72.2418 91.7745 72.2418 93.2895C72.2418 94.8045 71.0242 95.9699 69.5747 95.9699ZM71.0822 87.8704V70.2147C71.0822 69.3989 70.4444 68.6997 69.5747 68.6997H64.1246C63.3129 68.6997 62.6172 69.3407 62.6172 70.2147C62.6172 71.0305 63.255 71.7297 64.1246 71.7297H68.0672V87.8704C65.6901 88.5114 63.9507 90.7256 63.9507 93.2895C63.9507 96.3778 66.4438 98.9416 69.5747 98.9416C72.6476 98.9416 75.1987 96.436 75.1987 93.2895C75.1987 90.7256 73.4593 88.5114 71.0822 87.8704Z" fill="#DCF219"/>
</g>
<defs>
<clipPath id="clip0_1074_158">
<rect width="101" height="99" fill="white"/>
</clipPath>
</defs>
</svg>
