<svg width="101" height="101" viewBox="0 0 101 101" fill="none" xmlns="http://www.w3.org/2000/svg">
<g clip-path="url(#clip0_1074_152)">
<path d="M66.9911 59.3289L62.1144 58.4942C61.5369 56.5679 60.7668 54.6417 59.8043 52.8438L62.6919 48.7987C62.8202 48.6061 62.9485 48.4135 63.0127 48.1566C63.0769 47.8998 63.0769 47.7072 63.0769 47.4503C63.0769 47.1935 63.0127 47.0009 62.8844 46.744C62.756 46.5514 62.6277 46.3588 62.4994 46.1662L54.7992 38.5896C54.6067 38.3969 54.4142 38.2685 54.2217 38.2043C54.0292 38.0759 53.7726 38.0117 53.5159 38.0117C53.2592 38.0117 53.0667 38.0117 52.81 38.0759C52.5534 38.1401 52.3609 38.2685 52.1684 38.3969L48.1258 41.2863C46.3291 40.3232 44.4682 39.5527 42.479 38.9748L41.7732 34.0307C41.709 33.7739 41.6449 33.5813 41.5165 33.3887C41.3882 33.196 41.2599 33.0034 41.0673 32.875C40.8748 32.7466 40.6823 32.6182 40.4257 32.4897C40.169 32.4255 39.9765 32.3613 39.7198 32.3613H28.9396C28.683 32.3613 28.4905 32.4255 28.2338 32.4897C28.0413 32.554 27.7846 32.6824 27.5921 32.875C27.3996 33.0676 27.2713 33.196 27.143 33.3887C27.0146 33.5813 26.9504 33.8381 26.8863 34.0307L26.0521 38.9748C24.1271 39.5527 22.202 40.3232 20.4053 41.2863L16.3628 38.3969C16.1703 38.2685 15.9778 38.1401 15.7211 38.0759C15.4644 38.0117 15.2719 38.0117 15.0152 38.0117C14.7586 38.0117 14.5661 38.0759 14.3094 38.2043C14.1169 38.3327 13.9244 38.4611 13.7319 38.5896L6.22427 46.2304C6.03177 46.423 5.90343 46.6156 5.83926 46.8082C5.7751 47.0009 5.71093 47.2577 5.64676 47.5145C5.64676 47.7714 5.64676 47.964 5.71093 48.2208C5.7751 48.4777 5.90343 48.6703 6.03177 48.8629L8.91931 52.9081C7.9568 54.7059 7.18679 56.5679 6.60928 58.5584L1.73253 59.3931C1.47586 59.4573 1.28335 59.5215 1.09085 59.6499C0.898348 59.7784 0.705845 59.9068 0.57751 60.0994C0.449174 60.292 0.320839 60.4847 0.192503 60.7415C0.0641677 60.8057 0 61.0625 0 61.3194V72.1064C0 72.3632 0.0641677 72.5559 0.128335 72.8127C0.192503 73.0695 0.320839 73.2622 0.513342 73.4548C0.641677 73.6474 0.834181 73.7758 1.02668 73.9042C1.21919 74.0327 1.47586 74.0969 1.66836 74.1611L6.54511 74.9958C7.12262 76.922 7.89263 78.8483 8.85515 80.6461L5.9676 84.6913C5.83926 84.8839 5.71093 85.0765 5.64676 85.3334C5.58259 85.5902 5.58259 85.7828 5.58259 86.0396C5.58259 86.2965 5.64676 86.4891 5.7751 86.7459C5.90343 86.9386 6.03177 87.1312 6.1601 87.3238L13.7961 94.9646C13.9886 95.1573 14.1811 95.2857 14.3736 95.3499C14.5661 95.4783 14.8227 95.5425 15.0794 95.5425C15.3361 95.5425 15.5286 95.5425 15.7853 95.4783C16.0419 95.4141 16.2344 95.2857 16.4269 95.1573L20.4695 92.2679C22.2662 93.231 24.1271 94.0015 26.1163 94.5794L26.9504 99.4592C27.0146 99.7161 27.0788 99.9087 27.2071 100.101C27.3355 100.294 27.4638 100.487 27.6563 100.615C27.8488 100.743 28.0413 100.872 28.298 101C28.5546 101.064 28.7471 101.129 29.0038 101.129H39.784C40.0407 101.129 40.2332 101.064 40.4898 101C40.7465 100.936 40.939 100.808 41.1315 100.615C41.324 100.487 41.4524 100.294 41.5807 100.101C41.709 99.9087 41.7732 99.6518 41.8374 99.4592L42.6715 94.5794C44.5966 94.0015 46.5216 93.231 48.3183 92.2679L52.3609 95.1573C52.5534 95.2857 52.7459 95.4141 53.0025 95.4783C53.2592 95.5425 53.4517 95.5425 53.7084 95.5425C53.9651 95.5425 54.1576 95.4783 54.4142 95.3499C54.6067 95.2215 54.7992 95.093 54.9917 94.9646L62.6277 87.3238C62.8202 87.1312 62.9485 86.9386 63.0127 86.7459C63.141 86.5533 63.141 86.2965 63.2052 86.0396C63.2052 85.7828 63.2052 85.5902 63.141 85.3334C63.0769 85.0765 62.9485 84.8839 62.8202 84.6913L59.9327 80.6461C60.8952 78.8483 61.6652 76.9863 62.2427 74.9958L67.1194 74.1611C67.3761 74.0969 67.5686 74.0327 67.7611 73.9042C67.9536 73.7758 68.1461 73.6474 68.2745 73.4548C68.4028 73.2622 68.5311 73.0695 68.6595 72.8127C68.7236 72.5559 68.7878 72.3632 68.7878 72.1064V61.3194C68.7878 61.0625 68.7236 60.8699 68.6595 60.6131C68.5953 60.4205 68.467 60.1636 68.3386 60.0352C68.2103 59.8426 68.0178 59.7142 67.8253 59.5857C67.4403 59.4573 67.2478 59.3931 66.9911 59.3289ZM64.6169 70.3728L60.1252 71.1433C59.9327 71.2075 59.7402 71.2075 59.5477 71.3359C59.3552 71.4001 59.2268 71.5285 59.0985 71.6569C58.9701 71.7854 58.8418 71.9138 58.7135 72.1064C58.5851 72.299 58.521 72.4274 58.521 72.6201C57.9435 75.06 56.9809 77.4357 55.6334 79.5546C55.5051 79.7472 55.4409 79.8756 55.3768 80.0683C55.3126 80.2609 55.3126 80.4535 55.3126 80.6461C55.3126 80.8388 55.3768 81.0314 55.4409 81.224C55.5051 81.4166 55.5693 81.6093 55.6976 81.7377L58.3285 85.4618L53.1309 90.6627L49.4092 88.0301C49.2167 87.9017 49.0883 87.8375 48.8958 87.7733C48.7033 87.7091 48.5108 87.6449 48.3183 87.6449C48.1258 87.6449 47.9333 87.6449 47.7408 87.7091C47.5483 87.7733 47.3558 87.8375 47.2275 87.9659C45.0457 89.3143 42.7357 90.2132 40.2973 90.8553C40.1048 90.9195 39.9123 90.9837 39.784 91.0479C39.5915 91.1763 39.4632 91.2405 39.3348 91.4332C39.2065 91.5616 39.0781 91.7542 39.014 91.8826C38.9498 92.0753 38.8856 92.2679 38.8215 92.4605L38.0515 96.9551H30.6722L29.9022 92.4605C29.838 92.2679 29.838 92.0753 29.7097 91.8826C29.6455 91.69 29.5172 91.5616 29.3888 91.4332C29.2605 91.3047 29.1321 91.1763 28.9396 91.0479C28.7471 90.9195 28.6188 90.8553 28.4263 90.8553C25.9879 90.2774 23.6137 89.3143 21.4962 87.9659C21.3037 87.8375 21.1754 87.7733 20.9828 87.7091C20.7903 87.6449 20.5978 87.6449 20.4053 87.6449C20.2128 87.6449 20.0203 87.7091 19.8278 87.7733C19.6353 87.8375 19.4428 87.9017 19.3145 88.0301L15.5928 90.6627L10.3952 85.4618L13.026 81.7377C13.1544 81.5451 13.2186 81.4166 13.2827 81.224C13.3469 81.0314 13.4111 80.8388 13.4111 80.6461C13.4111 80.4535 13.4111 80.2609 13.3469 80.0683C13.2827 79.8756 13.2186 79.683 13.0902 79.5546C11.7427 77.3715 10.8443 75.06 10.2027 72.6201C10.1385 72.4274 10.0743 72.2348 10.0102 72.1064C9.88183 71.9138 9.81766 71.7854 9.62516 71.6569C9.49682 71.5285 9.30432 71.4001 9.17599 71.3359C8.98348 71.2717 8.79098 71.2075 8.59848 71.1433L4.10673 70.3728V63.053L8.59848 62.2825C8.79098 62.2183 8.98348 62.2183 9.17599 62.0899C9.36849 62.0257 9.49682 61.8972 9.62516 61.7688C9.7535 61.6404 9.88183 61.512 10.0102 61.3194C10.1385 61.1267 10.2027 60.9983 10.2027 60.8057C10.7802 58.3658 11.7427 55.9901 13.0902 53.8712C13.2186 53.6786 13.2827 53.5501 13.3469 53.3575C13.4111 53.1649 13.4111 52.9723 13.4111 52.7796C13.4111 52.587 13.3469 52.3944 13.2827 52.2018C13.2186 52.0091 13.1544 51.8165 13.026 51.6881L10.2668 47.8356L15.4644 42.6347L19.1862 45.2672C19.3787 45.3957 19.507 45.4599 19.6995 45.5241C19.892 45.5883 20.0845 45.6525 20.277 45.6525C20.4695 45.6525 20.662 45.6525 20.8545 45.5883C21.047 45.5241 21.2395 45.4599 21.3679 45.3314C23.5496 43.9831 25.8596 43.0841 28.298 42.4421C28.4905 42.3779 28.683 42.3136 28.8113 42.2494C29.0038 42.121 29.1321 42.0568 29.2605 41.8642C29.3888 41.7358 29.5172 41.5431 29.5813 41.4147C29.6455 41.2221 29.7097 41.0295 29.7738 40.8369L30.5438 36.3423H37.9231L38.6931 40.8369C38.7573 41.0295 38.7573 41.2221 38.8856 41.4147C38.9498 41.6074 39.0781 41.7358 39.2065 41.8642C39.3348 41.9926 39.4632 42.121 39.6557 42.2494C39.8482 42.3779 39.9765 42.4421 40.169 42.4421C42.6074 43.0199 44.9816 43.9831 47.0991 45.3314C47.2916 45.4599 47.42 45.5241 47.6125 45.5883C47.805 45.6525 47.9975 45.6525 48.19 45.6525C48.3825 45.6525 48.575 45.5883 48.7675 45.5241C48.96 45.4599 49.1525 45.3957 49.2808 45.2672L53.0025 42.6347L58.2001 47.8356L55.5693 51.5597C55.4409 51.7523 55.3768 51.8807 55.3126 52.0733C55.2484 52.266 55.1842 52.4586 55.1842 52.6512C55.1842 52.8438 55.1842 53.0365 55.2484 53.2291C55.3126 53.4217 55.3768 53.6143 55.5051 53.7428C56.8526 55.9259 57.751 58.2374 58.3926 60.6773C58.4568 60.8699 58.521 61.0625 58.5851 61.191C58.7135 61.3836 58.7776 61.512 58.9701 61.6404C59.0985 61.7688 59.291 61.8972 59.4193 61.9615C59.6118 62.0257 59.8043 62.0899 59.9968 62.1541L64.4886 62.9246L64.6169 70.3728Z" fill="#DCF219"/>
<path d="M34.3301 48.5415C33.7526 48.5415 33.1109 48.5415 32.5334 48.6057C31.9559 48.6699 31.3784 48.7341 30.7367 48.8625C30.1592 48.991 29.5817 49.1194 29.0042 49.312C28.4266 49.5046 27.8491 49.6973 27.3358 49.8899C26.7583 50.1467 26.2449 50.4036 25.7316 50.6604C25.2183 50.9172 24.7049 51.2383 24.1916 51.5593C23.6782 51.8803 23.2291 52.2656 22.7799 52.6509C22.3307 53.0361 21.8815 53.4214 21.4324 53.8708C20.9832 54.3203 20.5982 54.7055 20.2132 55.2192C19.8282 55.6687 19.5073 56.1823 19.1223 56.6318C18.8015 57.1454 18.4807 57.6591 18.224 58.1728C17.9673 58.6865 17.7106 59.2643 17.454 59.778C17.1973 60.3559 17.0048 60.8695 16.8765 61.4474C16.684 62.0253 16.5556 62.6032 16.4273 63.181C16.2989 63.7589 16.2348 64.3368 16.1706 64.9789C16.1064 65.5568 16.1064 66.1346 16.1064 66.7767C16.1064 67.3546 16.1064 67.9967 16.1706 68.5746C16.2348 69.1524 16.2989 69.7303 16.4273 70.3724C16.5556 70.9503 16.684 71.5282 16.8765 72.106C17.069 72.6839 17.2615 73.2618 17.454 73.7755C17.7106 74.3533 17.9031 74.867 18.224 75.3807C18.4807 75.8943 18.8015 76.408 19.1223 76.9217C19.4432 77.4353 19.8282 77.8848 20.2132 78.3343C20.5982 78.7837 20.9832 79.2332 21.4324 79.6826C21.8815 80.1321 22.2665 80.5173 22.7799 80.9026C23.2291 81.2878 23.7424 81.6089 24.1916 81.9941C24.7049 82.3152 25.2183 82.6362 25.7316 82.8931C26.2449 83.1499 26.8225 83.4067 27.3358 83.6636C27.9133 83.9204 28.4266 84.113 29.0042 84.2414C29.5817 84.4341 30.1592 84.5625 30.7367 84.6909C31.3142 84.8193 31.8917 84.8835 32.5334 84.9477C33.1109 85.0119 33.6884 85.0119 34.3301 85.0119C34.9718 85.0119 35.5493 85.0119 36.1268 84.9477C36.7043 84.8835 37.2818 84.8193 37.9235 84.6909C38.501 84.5625 39.0785 84.4341 39.656 84.2414C40.2335 84.0488 40.811 83.8562 41.3244 83.6636C41.9019 83.4067 42.4152 83.2141 42.9286 82.8931C43.4419 82.6362 43.9552 82.3152 44.4686 81.9941C44.9819 81.6731 45.4311 81.2878 45.8803 80.9026C46.3294 80.5173 46.7786 80.1321 47.2278 79.6826C47.677 79.2332 48.062 78.8479 48.447 78.3343C48.832 77.8848 49.1528 77.3711 49.5378 76.9217C49.8587 76.408 50.1795 75.8943 50.4362 75.3807C50.6928 74.867 50.9495 74.2891 51.2062 73.7755C51.4629 73.1976 51.6554 72.6839 51.7837 72.106C51.912 71.5282 52.1045 70.9503 52.2329 70.3724C52.3612 69.7945 52.4254 69.2167 52.4895 68.5746C52.5537 67.9967 52.5537 67.4188 52.5537 66.7767C52.5537 66.1988 52.5537 65.5568 52.4895 64.9789C52.4254 64.401 52.3612 63.8231 52.2329 63.2453C52.1045 62.6674 51.9762 62.0895 51.7837 61.5116C51.5912 60.9338 51.3987 60.3559 51.2062 59.8422C50.9495 59.2643 50.6928 58.7507 50.4362 58.237C50.1795 57.7233 49.8587 57.2097 49.5378 56.696C49.217 56.1823 48.832 55.7329 48.447 55.2834C48.062 54.8339 47.677 54.3845 47.2278 53.935C46.7786 53.4856 46.3936 53.1003 45.8803 52.7151C45.4311 52.3298 44.9178 52.0088 44.4686 51.6235C43.9552 51.3025 43.4419 50.9814 42.9286 50.7246C42.4152 50.4678 41.8377 50.2109 41.3244 49.9541C40.7469 49.6973 40.2335 49.5046 39.656 49.3762C39.0785 49.1836 38.501 49.0552 37.9235 48.9268C37.346 48.7983 36.7685 48.7341 36.1909 48.6699C35.5493 48.5415 34.9076 48.5415 34.3301 48.5415ZM34.3301 80.8384C33.8809 80.8384 33.4317 80.8384 32.9184 80.7742C32.4692 80.71 32.02 80.6458 31.5709 80.5816C31.1217 80.5173 30.6725 80.3889 30.2233 80.2605C29.7742 80.1321 29.325 79.9395 28.94 79.8111C28.4908 79.6184 28.1058 79.4258 27.6566 79.2332C27.2075 79.0406 26.8225 78.7837 26.4374 78.5269C26.0524 78.2701 25.6674 78.0132 25.3466 77.6922C24.9616 77.3711 24.6408 77.1143 24.3199 76.729C23.9991 76.408 23.6782 76.087 23.3574 75.7017C23.0366 75.3165 22.7799 74.9954 22.5232 74.6102C22.2665 74.2249 22.0099 73.8397 21.8174 73.3902C21.6249 73.005 21.4324 72.5555 21.2399 72.106C21.0474 71.6566 20.919 71.2713 20.7907 70.8219C20.6624 70.3724 20.534 69.9229 20.4699 69.4735C20.4057 69.024 20.3415 68.5746 20.2773 68.1251C20.2132 67.6756 20.2132 67.2262 20.2132 66.7125C20.2132 66.2631 20.2132 65.8136 20.2773 65.2999C20.3415 64.8505 20.4057 64.401 20.4699 63.9515C20.534 63.5021 20.6624 63.0526 20.7907 62.6032C20.919 62.1537 21.1115 61.7043 21.2399 61.319C21.4324 60.8695 21.6249 60.4843 21.8174 60.0348C22.0099 59.6496 22.2665 59.2001 22.5232 58.8149C22.7799 58.4296 23.0366 58.0444 23.3574 57.7233C23.6782 57.3381 23.9349 57.017 24.3199 56.696C24.7049 56.3749 24.9616 56.0539 25.3466 55.7329C25.7316 55.4118 26.0524 55.155 26.4374 54.8981C26.8225 54.6413 27.2075 54.3845 27.6566 54.1919C28.1058 53.9992 28.4908 53.8066 28.94 53.614C29.3892 53.4214 29.7742 53.2929 30.2233 53.1645C30.6725 53.0361 31.1217 52.9077 31.5709 52.8435C32.02 52.7793 32.4692 52.7151 32.9184 52.6509C33.3676 52.5866 33.8167 52.5866 34.3301 52.5866C34.8434 52.5866 35.2284 52.5866 35.7418 52.6509C36.1909 52.7151 36.6401 52.7793 37.0893 52.8435C37.5385 52.9077 37.9876 53.0361 38.4368 53.1645C38.886 53.2929 39.3352 53.4856 39.7202 53.614C40.1693 53.8066 40.5544 53.9992 41.0035 54.1919C41.3885 54.3845 41.8377 54.6413 42.2227 54.8981C42.6077 55.155 42.9927 55.4118 43.3136 55.7329C43.6986 56.0539 44.0194 56.3107 44.3402 56.696C44.6611 57.017 44.9819 57.3381 45.3028 57.7233C45.6236 58.1086 45.8803 58.4296 46.1369 58.8149C46.3936 59.2001 46.6503 59.5854 46.8428 60.0348C47.0353 60.4201 47.2278 60.8695 47.4203 61.319C47.6128 61.7685 47.7411 62.1537 47.8695 62.6032C47.9978 63.0526 48.1261 63.5021 48.1903 63.9515C48.2545 64.401 48.3186 64.8505 48.3828 65.2999C48.447 65.7494 48.447 66.1988 48.447 66.7125C48.447 67.162 48.447 67.6114 48.3828 68.1251C48.3186 68.5746 48.2545 69.024 48.1903 69.4735C48.1261 69.9229 47.9978 70.3724 47.8695 70.8219C47.7411 71.2713 47.5486 71.7208 47.4203 72.106C47.2278 72.5555 47.0353 72.9407 46.8428 73.3902C46.6503 73.8397 46.3936 74.2249 46.1369 74.6102C45.8803 74.9954 45.6236 75.3807 45.3028 75.7017C44.9819 76.087 44.7253 76.408 44.3402 76.729C44.0194 77.0501 43.6986 77.3711 43.3136 77.6922C42.9286 78.0132 42.6077 78.2701 42.2227 78.5269C41.8377 78.7837 41.4527 79.0406 41.0035 79.2332C40.6185 79.4258 40.1693 79.6184 39.7202 79.8111C39.271 80.0037 38.886 80.1321 38.4368 80.2605C37.9876 80.3889 37.5385 80.5173 37.0893 80.5816C36.6401 80.6458 36.1909 80.71 35.7418 80.7742C35.2926 80.8384 34.7793 80.8384 34.3301 80.8384Z" fill="#DCF219"/>
<path d="M99.3318 16.8868L96.7009 16.4374C96.3801 15.4743 95.9951 14.5753 95.5459 13.6764L97.0859 11.4933C97.2143 11.3007 97.3426 11.1081 97.4068 10.8512C97.471 10.5944 97.471 10.4018 97.471 10.1449C97.471 9.88811 97.4068 9.69549 97.2785 9.43865C97.1501 9.24603 97.0218 9.0534 96.8934 8.86077L92.145 4.10934C91.9525 3.91672 91.76 3.7883 91.5675 3.72409C91.375 3.59568 91.1184 3.53147 90.8617 3.53147C90.605 3.53147 90.4125 3.53147 90.1558 3.59568C89.8992 3.65989 89.7067 3.7883 89.5142 3.91672L87.3325 5.45772C86.4341 5.00826 85.5358 4.62301 84.5732 4.30197L84.1241 1.66942C84.0599 1.41259 83.9957 1.21996 83.8674 1.02734C83.7391 0.834711 83.6107 0.642085 83.4182 0.513668C83.2257 0.385251 83.0332 0.256834 82.7765 0.128417C82.6482 0.0642085 82.3915 0 82.1349 0H75.3973C75.1406 0 74.9481 0.0642085 74.6914 0.128417C74.4347 0.192626 74.2422 0.321043 74.0497 0.513668C73.8572 0.642085 73.7289 0.834711 73.6006 1.02734C73.4722 1.21996 73.4081 1.4768 73.3439 1.66942L72.8947 4.30197C71.9322 4.62301 71.0339 5.00826 70.1355 5.45772L67.9538 3.91672C67.7613 3.7883 67.5688 3.65989 67.3121 3.59568C67.0555 3.53147 66.8629 3.53147 66.6063 3.53147C66.3496 3.53147 66.1571 3.59568 65.9004 3.72409C65.7079 3.85251 65.5154 3.98093 65.3229 4.10934L60.5745 8.86077C60.382 9.0534 60.2537 9.24603 60.1895 9.43865C60.0612 9.63128 60.0612 9.88811 59.997 10.1449C59.997 10.4018 59.997 10.5944 60.0612 10.8512C60.1253 11.1081 60.2537 11.3007 60.382 11.4933L61.922 13.6764C61.4729 14.5753 61.0878 15.4743 60.767 16.4374L58.1361 16.8868C57.8795 16.951 57.687 17.0153 57.4945 17.1437C57.302 17.2721 57.1095 17.4005 56.9811 17.5931C56.8528 17.7858 56.7244 17.9784 56.5961 18.2352C56.5319 18.4921 56.4678 18.6847 56.4678 18.9415V25.6834C56.4678 25.9402 56.5319 26.1329 56.5961 26.3897C56.6603 26.6465 56.7886 26.8392 56.9811 27.0318C57.1095 27.2244 57.302 27.3528 57.4945 27.4812C57.687 27.6097 57.9436 27.6739 58.1361 27.7381L60.767 28.1875C61.0878 29.1507 61.4729 30.0496 61.922 30.9485L60.382 33.1316C60.2537 33.3242 60.1253 33.5168 60.0612 33.7737C59.997 34.0305 59.997 34.2231 59.997 34.48C59.997 34.7368 60.0612 34.9294 60.1895 35.1863C60.3178 35.3789 60.4462 35.5715 60.5745 35.7641L65.3229 40.5156C65.5154 40.7082 65.7079 40.8366 65.9004 40.9008C66.0929 41.0292 66.3496 41.0292 66.6063 41.0934C66.8629 41.0934 67.0555 41.0934 67.3121 41.0292C67.5688 40.965 67.7613 40.8366 67.9538 40.7082L70.1355 39.1672C71.0339 39.6167 71.9322 40.0019 72.8947 40.3229L73.3439 42.9555C73.4081 43.2123 73.4722 43.405 73.6006 43.5976C73.7289 43.7902 73.8572 43.9828 74.0497 44.1112C74.2422 44.2397 74.4347 44.3681 74.6914 44.4965C74.8839 44.5607 75.1406 44.6249 75.3973 44.6249H82.1349C82.3915 44.6249 82.584 44.5607 82.8407 44.4965C83.0974 44.4323 83.2899 44.3039 83.4824 44.1112C83.6749 43.9828 83.8032 43.7902 83.9316 43.5976C84.0599 43.405 84.1241 43.1481 84.1882 42.9555L84.6374 40.3229C85.5999 40.0019 86.4983 39.6167 87.3966 39.1672L89.5783 40.7082C89.7708 40.8366 89.9633 40.965 90.22 41.0292C90.4767 41.0934 90.6692 41.0934 90.9258 41.0934C91.1825 41.0934 91.375 41.0292 91.6317 40.9008C91.8242 40.7724 92.0167 40.644 92.2092 40.5156L96.9576 35.7641C97.1501 35.5715 97.2785 35.3789 97.3426 35.1863C97.471 34.9936 97.5351 34.7368 97.5351 34.48C97.5351 34.2231 97.5351 34.0305 97.471 33.7737C97.4068 33.5168 97.2784 33.3242 97.1501 33.1316L95.6101 30.9485C96.0593 30.0496 96.4443 29.1507 96.7651 28.1875L99.396 27.7381C99.6527 27.6739 99.8452 27.6097 100.038 27.4812C100.23 27.3528 100.423 27.2244 100.551 27.0318C100.679 26.8392 100.808 26.6465 100.936 26.3897C101 26.1971 101.064 25.9402 101.064 25.6834V18.8773C101.064 18.6205 101 18.4278 100.936 18.171C100.872 17.9142 100.744 17.7215 100.551 17.5289C100.423 17.3363 100.23 17.2079 100.038 17.0795C99.781 17.0153 99.5243 16.8868 99.3318 16.8868ZM96.9576 23.8856L94.7759 24.2708C94.5834 24.335 94.3909 24.335 94.1984 24.4634C94.0059 24.5277 93.8776 24.6561 93.7492 24.7845C93.6209 24.9129 93.4926 25.0413 93.3642 25.2339C93.2359 25.4266 93.1717 25.555 93.1717 25.7476C92.7867 27.2244 92.2092 28.5728 91.4392 29.9212C91.3109 30.1138 91.2467 30.2422 91.1825 30.4348C91.1184 30.6275 91.1183 30.8201 91.1183 31.0127C91.1183 31.2053 91.1825 31.398 91.2467 31.5906C91.3108 31.7832 91.375 31.9758 91.5034 32.1043L92.7867 33.9021L90.4125 36.2778L88.6158 34.9936C88.4233 34.8652 88.295 34.801 88.1025 34.7368C87.91 34.6726 87.7175 34.6084 87.525 34.6084C87.3324 34.6084 87.1399 34.6084 86.9474 34.6726C86.7549 34.7368 86.5624 34.801 86.4341 34.9294C85.1507 35.6999 83.7391 36.2778 82.3274 36.6631C82.1349 36.7273 81.9424 36.7915 81.814 36.8557C81.6215 36.9841 81.4932 37.0483 81.3649 37.2409C81.2365 37.3694 81.1082 37.562 81.044 37.6904C80.9798 37.883 80.9157 38.0756 80.8515 38.2683L80.4665 40.4514H77.1298L76.7448 38.2683C76.6806 38.0756 76.6806 37.883 76.5523 37.6904C76.4881 37.4978 76.3598 37.3694 76.2314 37.2409C76.1031 37.1125 75.9748 36.9841 75.7823 36.8557C75.5898 36.7273 75.4614 36.6631 75.2689 36.6631C73.7931 36.2778 72.4455 35.7641 71.1622 34.9294C70.9697 34.801 70.8413 34.7368 70.6488 34.6726C70.4563 34.6084 70.2638 34.6084 70.0713 34.6084C69.8788 34.6084 69.6863 34.6726 69.4938 34.7368C69.3013 34.801 69.1088 34.8652 68.9805 34.9936L67.1838 36.2778L64.8096 33.9021L66.0929 32.1043C66.2213 31.9116 66.2854 31.7832 66.3496 31.5906C66.4138 31.398 66.4779 31.2053 66.4779 31.0127C66.4779 30.8201 66.4779 30.6275 66.4138 30.4348C66.3496 30.2422 66.2854 30.0496 66.1571 29.9212C65.3871 28.637 64.8096 27.2244 64.4246 25.8118C64.3604 25.6192 64.2962 25.4266 64.2321 25.2982C64.1037 25.1055 64.0396 24.9771 63.8471 24.8487C63.7187 24.7203 63.5262 24.5919 63.3979 24.5277C63.2054 24.4634 63.0129 24.3992 62.8204 24.335L60.6387 23.9498V20.5467L62.8204 20.1615C63.0129 20.0973 63.2054 20.0973 63.3979 19.9688C63.5904 19.9046 63.7187 19.7762 63.8471 19.6478C63.9754 19.5194 64.1037 19.391 64.2321 19.1983C64.3604 19.0057 64.4246 18.8773 64.4246 18.6847C64.8096 17.2079 65.3229 15.8595 66.1571 14.5111C66.2854 14.3185 66.3496 14.1901 66.4138 13.9975C66.4779 13.8048 66.4779 13.6122 66.4779 13.4196C66.4779 13.227 66.4138 13.0343 66.3496 12.8417C66.2854 12.6491 66.2213 12.4565 66.0929 12.328L64.8096 10.5302L67.1838 8.15448L68.9805 9.43865C69.173 9.56707 69.3013 9.63128 69.4938 9.69549C69.6863 9.75969 69.8788 9.8239 70.0713 9.8239C70.2638 9.8239 70.4563 9.8239 70.6488 9.75969C70.8413 9.69549 71.0338 9.63128 71.1622 9.50286C72.4455 8.73236 73.8572 8.15448 75.2689 7.76923C75.4614 7.70502 75.6539 7.64081 75.7823 7.5766C75.9748 7.44819 76.1031 7.38398 76.2314 7.19135C76.3598 6.99873 76.4881 6.87031 76.5523 6.74189C76.6164 6.54927 76.6806 6.35664 76.7448 6.16402L77.1298 3.98093H80.4665L80.8515 6.16402C80.9157 6.35664 80.9157 6.54927 81.044 6.74189C81.1082 6.93452 81.2365 7.06294 81.3649 7.19135C81.4932 7.31977 81.6215 7.44819 81.814 7.5766C82.0065 7.70502 82.1349 7.76923 82.3274 7.76923C83.8032 8.15448 85.1507 8.73236 86.4341 9.50286C86.6266 9.63128 86.7549 9.69549 86.9474 9.75969C87.1399 9.8239 87.3324 9.8239 87.525 9.8239C87.7175 9.8239 87.91 9.75969 88.1025 9.69549C88.295 9.63128 88.4875 9.56707 88.6158 9.43865L90.4125 8.15448L92.7867 10.5302L91.5034 12.328C91.375 12.5207 91.3108 12.6491 91.2467 12.8417C91.1825 13.0343 91.1183 13.227 91.1183 13.4196C91.1183 13.6122 91.1184 13.8048 91.1825 13.9975C91.2467 14.1901 91.3109 14.3827 91.4392 14.5111C92.2092 15.7953 92.7867 17.2079 93.1717 18.6205C93.2359 18.8131 93.3001 19.0057 93.3642 19.1341C93.4926 19.3268 93.5567 19.4552 93.7492 19.5836C93.8776 19.712 94.0701 19.8404 94.1984 19.9046C94.3909 19.9688 94.5834 20.0331 94.7759 20.0973L96.9576 20.4825V23.8856Z" fill="#DCF219"/>
<path d="M78.7983 12.1353C78.4774 12.1353 78.1566 12.1353 77.8357 12.1995C77.5149 12.2637 77.1941 12.2637 76.8732 12.3279C76.5524 12.3921 76.2315 12.4563 75.9107 12.5847C75.5899 12.6489 75.269 12.7773 74.9482 12.9058C74.6274 13.0342 74.3707 13.1626 74.0498 13.3552C73.729 13.4836 73.4723 13.6763 73.2157 13.8689C72.959 14.0615 72.7023 14.2541 72.4456 14.4468C72.189 14.6394 71.9323 14.8962 71.7398 15.0888C71.4831 15.3457 71.2906 15.5383 71.0981 15.7951C70.9056 16.052 70.7131 16.3088 70.5206 16.5656C70.3281 16.8225 70.1356 17.1435 70.0073 17.4004C69.8789 17.7214 69.6864 17.9782 69.5581 18.2993C69.4298 18.6203 69.3014 18.9414 69.2373 19.2624C69.1731 19.5834 69.0448 19.9045 68.9806 20.2255C68.9164 20.5466 68.8523 20.8676 68.8523 21.1887C68.7881 21.5097 68.7881 21.8307 68.7881 22.1518C68.7881 22.4728 68.7881 22.7939 68.8523 23.1149C68.8523 23.436 68.9164 23.757 68.9806 24.078C69.0448 24.3991 69.1089 24.7201 69.2373 25.0412C69.3014 25.3622 69.4298 25.6833 69.5581 26.0043C69.6864 26.3253 69.8148 26.5822 70.0073 26.9032C70.1356 27.2243 70.3281 27.4811 70.5206 27.7379C70.7131 27.9948 70.9056 28.2516 71.0981 28.5084C71.2906 28.7653 71.5473 29.0221 71.7398 29.2147C71.9965 29.4716 72.189 29.6642 72.4456 29.8568C72.7023 30.0494 72.959 30.2421 73.2157 30.4347C73.4723 30.6273 73.7932 30.8199 74.0498 30.9483C74.3707 31.0768 74.6274 31.2694 74.9482 31.3978C75.269 31.5262 75.5899 31.6546 75.9107 31.7189C76.2315 31.7831 76.5524 31.9115 76.8732 31.9757C77.1941 32.0399 77.5149 32.1041 77.8357 32.1041C78.1566 32.1683 78.4774 32.1683 78.7983 32.1683C79.1191 32.1683 79.4399 32.1683 79.7608 32.1041C80.0816 32.1041 80.4024 32.0399 80.7233 31.9757C81.0441 31.9115 81.365 31.8473 81.6858 31.7189C82.0066 31.6546 82.3275 31.5262 82.6483 31.3978C82.9692 31.2694 83.2258 31.141 83.5467 30.9483C83.8675 30.8199 84.1242 30.6273 84.3808 30.4347C84.6375 30.2421 84.8942 30.0494 85.1509 29.8568C85.4075 29.6642 85.6642 29.4073 85.8567 29.2147C86.1134 28.9579 86.3059 28.7653 86.4984 28.5084C86.6909 28.2516 86.8834 27.9948 87.0759 27.7379C87.2684 27.4811 87.4609 27.16 87.5892 26.9032C87.7176 26.5822 87.9101 26.3253 88.0384 26.0043C88.1667 25.6833 88.2951 25.3622 88.3592 25.0412C88.4234 24.7201 88.5518 24.3991 88.6159 24.078C88.6801 23.757 88.7443 23.436 88.7443 23.1149C88.7443 22.7939 88.8084 22.4728 88.8084 22.1518C88.8084 21.8307 88.8084 21.5097 88.7443 21.1887C88.6801 20.8676 88.6801 20.5466 88.6159 20.2255C88.5518 19.9045 88.4876 19.5834 88.3592 19.2624C88.2951 18.9414 88.1667 18.6203 88.0384 18.2993C87.9101 17.9782 87.7817 17.7214 87.5892 17.4004C87.4609 17.0793 87.2684 16.8225 87.0759 16.5656C86.8834 16.3088 86.6909 16.052 86.4984 15.7951C86.3059 15.5383 86.0492 15.2815 85.8567 15.0888C85.6 14.832 85.4075 14.6394 85.1509 14.4468C84.8942 14.2541 84.6375 14.0615 84.3808 13.8689C84.1242 13.6763 83.8033 13.4836 83.5467 13.3552C83.2258 13.2268 82.9692 13.0342 82.6483 12.9058C82.3275 12.7773 82.0066 12.6489 81.6858 12.5847C81.365 12.5205 81.0441 12.3921 80.7233 12.3279C80.4024 12.2637 80.0816 12.1995 79.7608 12.1995C79.4399 12.1353 79.1191 12.1353 78.7983 12.1353ZM78.7983 28.3158C78.6058 28.3158 78.4132 28.3158 78.2207 28.3158C78.0282 28.3158 77.8357 28.2516 77.6432 28.2516C77.4507 28.1874 77.2582 28.1874 77.0657 28.1232C76.8732 28.059 76.6807 27.9948 76.4882 27.9305C76.2957 27.8663 76.1032 27.8021 75.9749 27.6737C75.7824 27.6095 75.654 27.4811 75.4615 27.3527C75.269 27.2243 75.1407 27.0958 75.0124 26.9674C74.884 26.839 74.6915 26.7106 74.5632 26.5822C74.4348 26.4538 74.3065 26.3253 74.1782 26.1327C74.0498 26.0043 73.9215 25.8117 73.7932 25.6833C73.6648 25.4906 73.6007 25.3622 73.4723 25.1696C73.4082 24.977 73.2798 24.7843 73.2157 24.6559C73.1515 24.4633 73.0873 24.2707 73.0232 24.078C72.959 23.8854 72.8948 23.6928 72.8948 23.5002C72.8307 23.3075 72.8307 23.1149 72.8307 22.9223C72.8307 22.7297 72.8307 22.537 72.8307 22.3444C72.8307 22.1518 72.8307 21.9592 72.8307 21.7665C72.8307 21.5739 72.8948 21.3813 72.8948 21.1887C72.959 20.996 72.959 20.8034 73.0232 20.6108C73.0873 20.4182 73.1515 20.2255 73.2157 20.0329C73.2798 19.8403 73.344 19.6476 73.4723 19.5192C73.5365 19.3266 73.6648 19.1982 73.7932 19.0056C73.9215 18.8129 74.0498 18.6845 74.1782 18.5561C74.3065 18.4277 74.4348 18.2351 74.5632 18.1066C74.6915 17.9782 74.8199 17.8498 75.0124 17.7214C75.1407 17.593 75.3332 17.4646 75.4615 17.3361C75.654 17.2077 75.7824 17.1435 75.9749 17.0151C76.1674 16.9509 76.3599 16.8225 76.4882 16.7583C76.6807 16.6941 76.8732 16.6298 77.0657 16.5656C77.2582 16.5014 77.4507 16.4372 77.6432 16.4372C77.8357 16.373 78.0282 16.373 78.2207 16.373C78.4132 16.373 78.6058 16.373 78.7983 16.373C78.9908 16.373 79.1833 16.373 79.3758 16.373C79.5683 16.373 79.7608 16.4372 79.9533 16.4372C80.1458 16.5014 80.3383 16.5014 80.5308 16.5656C80.7233 16.6298 80.9158 16.6941 81.1083 16.7583C81.3008 16.8225 81.4933 16.9509 81.6216 17.0151C81.8141 17.0793 81.9425 17.2077 82.135 17.3361C82.3275 17.4646 82.4558 17.593 82.5841 17.7214C82.7125 17.8498 82.905 17.9782 83.0333 18.1066C83.1617 18.2351 83.29 18.3635 83.4183 18.5561C83.5467 18.6845 83.675 18.8771 83.8033 19.0056C83.9317 19.1982 83.9958 19.3266 84.1242 19.5192C84.1883 19.7119 84.3167 19.9045 84.3808 20.0329C84.445 20.2255 84.5092 20.4182 84.5734 20.6108C84.6375 20.8034 84.7017 20.996 84.7017 21.1887C84.7659 21.3813 84.7659 21.5739 84.7659 21.7665C84.7659 21.9592 84.7659 22.1518 84.7659 22.3444C84.7659 22.537 84.7659 22.7297 84.7659 22.9223C84.7659 23.1149 84.7017 23.3075 84.7017 23.5002C84.6375 23.6928 84.6375 23.8854 84.5734 24.078C84.5092 24.2707 84.445 24.4633 84.3808 24.6559C84.3167 24.8485 84.1883 25.0412 84.1242 25.1696C84.06 25.3622 83.9317 25.4906 83.8033 25.6833C83.675 25.8759 83.5467 26.0043 83.4183 26.1327C83.29 26.2611 83.1617 26.4538 83.0333 26.5822C82.905 26.7106 82.7767 26.839 82.5841 26.9674C82.4558 27.0958 82.2633 27.2243 82.135 27.3527C81.9425 27.4811 81.8141 27.5453 81.6216 27.6737C81.4291 27.7379 81.2366 27.8663 81.1083 27.9305C80.9158 27.9948 80.7233 28.059 80.5308 28.1232C80.3383 28.1874 80.1458 28.2516 79.9533 28.2516C79.7608 28.3158 79.5683 28.3158 79.3758 28.3158C79.1833 28.3158 78.9908 28.3158 78.7983 28.3158Z" fill="#DCF219"/>
</g>
<defs>
<clipPath id="clip0_1074_152">
<rect width="101" height="101" fill="white"/>
</clipPath>
</defs>
</svg>
