<svg width="88" height="89" viewBox="0 0 88 89" fill="none" xmlns="http://www.w3.org/2000/svg">
<g clip-path="url(#clip0_1069_52)">
<path d="M86.993 9.49334H80.5594C80.5594 8.98477 80.3357 8.41969 79.9441 8.02414C79.5524 7.62858 79.0489 7.45906 78.5455 7.40255V1.01715C78.5455 0.621597 78.3217 0.226042 77.9301 0.0565179C77.5385 -0.113006 77.0909 9.93121e-06 76.8112 0.28255L69.9301 7.23303C69.7622 7.40255 69.6503 7.68509 69.6503 7.96763V15.5962L66.5175 18.8172C59.4126 12.3752 50.0699 8.4762 39.8881 8.4762C17.9021 8.4762 0 26.5022 0 48.7098C0 70.9175 17.9021 89 39.8881 89C61.8741 89 79.7762 70.9175 79.7762 48.7098C79.7762 38.3124 75.8601 28.8191 69.4266 21.6425L72.5594 18.4781H80.1119C80.3916 18.4781 80.6154 18.3651 80.8392 18.1956L87.7203 11.3016C88 11.0191 88.1119 10.567 87.9441 10.1714C87.7762 9.77588 87.3846 9.49334 86.993 9.49334ZM72.6154 48.7098C72.6154 66.9619 57.958 81.767 39.8881 81.767C21.8182 81.767 7.16084 66.9619 7.16084 48.7098C7.16084 30.4578 21.8182 15.6527 39.8881 15.6527C48.1678 15.6527 55.6643 18.7606 61.4266 23.8464L55.2727 30.0622C51.0769 26.5587 45.7063 24.4114 39.8322 24.4114C26.5734 24.4114 15.7762 35.3175 15.7762 48.7098C15.7762 62.1022 26.5734 73.0083 39.8322 73.0083C53.0909 73.0083 63.8881 62.1022 63.8881 48.7098C63.8881 42.72 61.7063 37.2387 58.1259 33.0006L64.2797 26.7848C69.4825 32.6051 72.6154 40.2902 72.6154 48.7098ZM39.8881 58.0902C44.979 58.0902 49.1748 53.9086 49.1748 48.7098C49.1748 46.8451 48.6154 45.0933 47.6643 43.6241L53.8741 37.3518C56.3357 40.4597 57.8462 44.4152 57.8462 48.7098C57.8462 58.7118 49.7902 66.8489 39.8881 66.8489C29.986 66.8489 21.9301 58.7118 21.9301 48.7098C21.9301 38.7079 29.986 30.5708 39.8881 30.5708C44.0839 30.5708 47.8881 32.04 50.965 34.4698L44.6993 40.7987C43.3007 39.8946 41.6224 39.386 39.8322 39.386C34.7413 39.386 30.5455 43.5676 30.5455 48.7664C30.6014 53.9086 34.7413 58.0902 39.8881 58.0902Z" fill="#5D58B8"/>
</g>
<defs>
<clipPath id="clip0_1069_52">
<rect width="88" height="89" fill="white"/>
</clipPath>
</defs>
</svg>
