<svg width="146" height="147" viewBox="0 0 146 147" fill="none" xmlns="http://www.w3.org/2000/svg">
<rect y="0.875" width="146" height="146" rx="73" fill="#E94A37"/>
<g clip-path="url(#clip0_905_4)">
<path d="M72.9999 89.8418L55.7866 107.113C55.3589 107.542 55.0196 108.052 54.7881 108.612C54.5566 109.173 54.4375 109.774 54.4375 110.38C54.4375 111.606 54.9228 112.781 55.7866 113.647C56.6505 114.514 57.8221 115 59.0437 115C60.2654 115 61.437 114.514 62.3008 113.647L72.9999 102.909L83.6989 113.647C84.5627 114.514 85.7343 115 86.956 115C88.1776 115 89.3492 114.514 90.2131 113.647C91.0769 112.781 91.5622 111.606 91.5622 110.38C91.5622 109.155 91.0769 107.98 90.2131 107.113L72.9999 89.8418Z" fill="#EBEBE9"/>
<path d="M110.012 42C108.947 42.0006 107.909 42.3434 107.052 42.9783C106.195 43.6131 105.563 44.5066 105.249 45.5278C104.935 46.549 104.955 47.6443 105.307 48.6531C105.658 49.662 106.323 50.5314 107.203 51.1341C105.757 58.3431 102.087 64.9135 96.7129 69.9153C91.3388 74.9171 84.5324 78.097 77.257 79.0049C76.8088 78.2919 76.1878 77.7044 75.452 77.2972C74.7162 76.8901 73.8895 76.6765 73.0491 76.6765C72.2088 76.6765 71.3821 76.8901 70.6463 77.2972C69.9104 77.7044 69.2895 78.2919 68.8413 79.0049C61.5489 78.1145 54.7215 74.9427 49.3283 69.9397C43.9352 64.9367 40.2504 58.3567 38.7971 51.1341C39.7173 50.5024 40.4 49.5797 40.736 48.5133C41.0721 47.4469 41.0422 46.2983 40.6511 45.2509C40.26 44.2036 39.5302 43.3179 38.5784 42.7353C37.6265 42.1527 36.5075 41.9068 35.4 42.037C34.2925 42.1671 33.2604 42.6657 32.4686 43.4531C31.6768 44.2406 31.1709 45.2715 31.0317 46.3812C30.8925 47.4908 31.1281 48.6153 31.7008 49.5749C32.2735 50.5346 33.1502 51.274 34.1911 51.6753C35.7588 59.9613 39.9231 67.5288 46.0776 73.2755C52.232 79.0223 60.055 82.6481 68.407 83.6247C68.7874 84.5351 69.4276 85.3125 70.247 85.8592C71.0665 86.4059 72.0288 86.6976 73.013 86.6976C73.9972 86.6976 74.9594 86.4059 75.7789 85.8592C76.5983 85.3125 77.2385 84.5351 77.6189 83.6247C85.9526 82.6304 93.7535 78.9983 99.8896 73.2556C106.026 67.5129 110.178 59.9584 111.743 51.6885C112.836 51.2784 113.752 50.4965 114.33 49.4791C114.908 48.4616 115.111 47.273 114.906 46.1204C114.7 44.9677 114.097 43.9241 113.203 43.1711C112.309 42.4182 111.18 42.0038 110.012 42Z" fill="#EBEBE9"/>
</g>
<defs>
<clipPath id="clip0_905_4">
<rect width="84" height="73" fill="white" transform="translate(31 42)"/>
</clipPath>
</defs>
</svg>
