<svg width="43" height="43" viewBox="0 0 43 43" fill="none" xmlns="http://www.w3.org/2000/svg">
<g clip-path="url(#clip0_209_98)">
<path d="M21.5 26.875C24.4685 26.875 26.875 24.4685 26.875 21.5C26.875 18.5315 24.4685 16.125 21.5 16.125C18.5315 16.125 16.125 18.5315 16.125 21.5C16.125 24.4685 18.5315 26.875 21.5 26.875Z" fill="#EBEBE9"/>
<path d="M28.8906 4.70312H14.1094C11.6147 4.70313 9.22217 5.69414 7.45815 7.45815C5.69414 9.22217 4.70313 11.6147 4.70312 14.1094V28.8906C4.70313 31.3853 5.69414 33.7778 7.45815 35.5418C9.22217 37.3059 11.6147 38.2969 14.1094 38.2969H28.8906C31.3853 38.2969 33.7778 37.3059 35.5418 35.5418C37.3059 33.7778 38.2969 31.3853 38.2969 28.8906V14.1094C38.2969 11.6147 37.3059 9.22217 35.5418 7.45815C33.7778 5.69414 31.3853 4.70313 28.8906 4.70312ZM21.5 29.5625C19.9054 29.5625 18.3466 29.0896 17.0207 28.2037C15.6948 27.3178 14.6615 26.0586 14.0512 24.5854C13.441 23.1122 13.2813 21.4911 13.5924 19.9271C13.9035 18.3631 14.6714 16.9265 15.799 15.799C16.9265 14.6714 18.3631 13.9035 19.9271 13.5924C21.4911 13.2813 23.1122 13.441 24.5854 14.0512C26.0586 14.6615 27.3178 15.6948 28.2037 17.0207C29.0896 18.3466 29.5625 19.9054 29.5625 21.5C29.5625 23.6383 28.7131 25.689 27.201 27.201C25.689 28.7131 23.6383 29.5625 21.5 29.5625ZM30.2344 14.7812C29.8357 14.7812 29.446 14.663 29.1146 14.4416C28.7831 14.2201 28.5247 13.9053 28.3722 13.537C28.2196 13.1687 28.1797 12.7634 28.2575 12.3724C28.3353 11.9814 28.5272 11.6223 28.8091 11.3404C29.091 11.0585 29.4502 10.8665 29.8411 10.7887C30.2321 10.711 30.6374 10.7509 31.0057 10.9034C31.374 11.056 31.6888 11.3143 31.9103 11.6458C32.1318 11.9773 32.25 12.367 32.25 12.7656C32.25 13.3002 32.0376 13.8129 31.6596 14.1909C31.2816 14.5689 30.769 14.7812 30.2344 14.7812Z" fill="#EBEBE9"/>
</g>
<defs>
<clipPath id="clip0_209_98">
<rect width="43" height="43" fill="white"/>
</clipPath>
</defs>
</svg>
