<?xml version="1.0" encoding="utf-8"?>
<!-- Generator: Adobe Illustrator 25.2.0, SVG Export Plug-In . SVG Version: 6.00 Build 0)  -->
<svg version="1.1" id="Layer_1" xmlns="http://www.w3.org/2000/svg" xmlns:xlink="http://www.w3.org/1999/xlink" x="0px" y="0px"
	 viewBox="0 0 13 13" style="enable-background:new 0 0 13 13;" xml:space="preserve">
<style type="text/css">
	.st0{fill:#EBEBE9;}
</style>
<polygon class="st0" points="10.5,12.5 0.5,12.5 0.5,2.5 5.5,2.5 5.5,3.5 1.5,3.5 1.5,11.5 9.5,11.5 9.5,7 10.5,7 "/>
<path class="st0" d="M12,0.5H7.5C7.2,0.5,7,0.7,7,1s0.2,0.5,0.5,0.5h3.3L5.7,6.6l0.7,0.7l5.1-5.1v3.3C11.5,5.8,11.7,6,12,6
	c0.3,0,0.5-0.2,0.5-0.5V1C12.5,0.7,12.3,0.5,12,0.5z"/>
</svg>
