<svg xmlns="http://www.w3.org/2000/svg" viewBox="0 0 108.24 142.02"><defs><style>.cls-1{fill:#e94a37;}</style></defs><g id="Layer_2" data-name="Layer 2"><g id="Layer_2-2" data-name="Layer 2"><path class="cls-1" d="M73.75,16.35,47.25,56.58a50.6,50.6,0,0,0-23.55.48q-2.34.61-4.58,1.44a50.25,50.25,0,0,0-18.53,12V3.07A3.07,3.07,0,0,1,3.66,0h17A3.07,3.07,0,0,1,23.7,3.07V51.54L46.88,16.35c.83-1.14,2-3.08,3.72-3.08H72.31C74,13.27,74.69,14.7,73.75,16.35Z"/><path class="cls-1" d="M107.94,139.16,66.62,84.72S56.44,69.08,37.53,69.08v0l-1.07,0a36.47,36.47,0,1,0,31.4,55l12.07,15.78a4.17,4.17,0,0,0,3.32,1.65h23.51A1.48,1.48,0,0,0,107.94,139.16ZM36.46,118a12.47,12.47,0,1,1,12.47-12.47A12.48,12.48,0,0,1,36.46,118Z"/></g></g></svg>