<?xml version="1.0" encoding="utf-8"?>
<!-- Generator: Adobe Illustrator 25.2.0, SVG Export Plug-In . SVG Version: 6.00 Build 0)  -->
<svg version="1.1" id="Layer_1" xmlns="http://www.w3.org/2000/svg" xmlns:xlink="http://www.w3.org/1999/xlink" x="0px" y="0px"
	 viewBox="0 0 108.2 142" style="enable-background:new 0 0 108.2 142;" xml:space="preserve">
<style type="text/css">
	.st0{fill:#EBEBE9;}
</style>
<g id="Layer_2_1_">
	<g id="Layer_2-2">
		<path class="st0" d="M73.8,16.4L47.2,56.6c-7.8-1.7-15.8-1.5-23.5,0.5c-1.6,0.4-3.1,0.9-4.6,1.4c-7,2.6-13.3,6.7-18.5,12V3.1
			C0.6,1.4,2,0,3.7,0h17c1.7,0,3,1.4,3,3.1v48.5l23.2-35.2c0.8-1.1,2-3.1,3.7-3.1h21.7C74,13.3,74.7,14.7,73.8,16.4z"/>
		<path class="st0" d="M107.9,139.2L66.6,84.7c0,0-10.2-15.6-29.1-15.6l0,0h-1.1C16.3,69.1,0,85.4,0,105.5S16.3,142,36.4,142
			c12.9,0,24.9-6.8,31.4-17.9l12.1,15.8c0.8,1,2,1.6,3.3,1.6h23.5c0.8,0,1.5-0.7,1.5-1.5C108.2,139.7,108.1,139.4,107.9,139.2z
			 M36.5,118c-6.9,0-12.5-5.6-12.5-12.5s5.6-12.5,12.5-12.5s12.5,5.6,12.5,12.5C48.9,112.4,43.3,118,36.5,118z"/>
	</g>
</g>
</svg>
