<svg width="146" height="147" viewBox="0 0 146 147" fill="none" xmlns="http://www.w3.org/2000/svg">
<rect y="0.875" width="146" height="146" rx="73" fill="#E94A37"/>
<g clip-path="url(#clip0_905_10)">
<path d="M32.9861 115C32.1941 115 31.4346 114.695 30.8746 114.151C30.3146 113.607 30 112.87 30 112.101C30 111.331 30.3146 110.594 30.8746 110.05C31.4346 109.506 32.1941 109.201 32.9861 109.201H70.3123L70.275 107.679V94.3402H40.0333C38.8484 94.3307 37.7147 93.8694 36.8768 93.0558C36.0389 92.2422 35.5639 91.1414 35.5541 89.9907V42.3496C35.5541 41.7754 35.6712 41.2068 35.8986 40.6767C36.1261 40.1467 36.4593 39.6656 36.8792 39.2612C37.2991 38.8568 37.7973 38.5372 38.3451 38.3208C38.8928 38.1043 39.4793 37.9954 40.0706 38.0002H106.444C107.632 38.0002 108.771 38.4584 109.611 39.2741C110.451 40.0898 110.923 41.1961 110.923 42.3496V89.9545C110.923 91.108 110.451 92.2143 109.611 93.03C108.771 93.8457 107.632 94.304 106.444 94.304H76.2024V107.715L76.1576 109.165H114.014C114.806 109.165 115.565 109.47 116.125 110.014C116.685 110.558 117 111.295 117 112.064C117 112.833 116.685 113.571 116.125 114.115C115.565 114.658 114.806 114.964 114.014 114.964L32.9861 115ZM41.489 88.5409H104.944V43.7994H41.489V88.5409Z" fill="#EBEBE9"/>
</g>
<defs>
<clipPath id="clip0_905_10">
<rect width="87" height="77" fill="white" transform="translate(30 38)"/>
</clipPath>
</defs>
</svg>
