<svg width="146" height="147" viewBox="0 0 146 147" fill="none" xmlns="http://www.w3.org/2000/svg">
<rect y="0.875" width="146" height="146" rx="73" fill="#E94A37"/>
<g clip-path="url(#clip0_905_5)">
<path d="M110.278 80.723C109.864 80.723 109.454 80.643 109.071 80.4875C108.688 80.332 108.34 80.1041 108.048 79.8169C107.755 79.5296 107.523 79.1887 107.365 78.8136C107.207 78.4384 107.126 78.0365 107.128 77.6308V77.496C107.131 71.2244 105.356 65.0749 101.999 59.7328C98.6427 54.3906 93.8369 50.0656 88.1172 47.2394C82.3974 44.4133 75.9884 43.1972 69.6041 43.7264C63.2199 44.2557 57.1111 46.5096 51.9584 50.2371L47.0174 53.8129H61.8728C62.6249 53.8516 63.3331 54.1713 63.8515 54.706C64.3699 55.2408 64.6588 55.9499 64.6588 56.6871C64.6588 57.4243 64.3699 58.1333 63.8515 58.6681C63.3331 59.2029 62.6249 59.5226 61.8728 59.5612H41.315C40.538 59.5592 39.7934 59.2561 39.244 58.7183C38.6946 58.1805 38.385 57.4516 38.3828 56.691V35.8702C38.3828 35.4933 38.4587 35.1201 38.606 34.7718C38.7534 34.4236 38.9694 34.1072 39.2416 33.8407C39.5139 33.5741 39.8372 33.3627 40.1929 33.2185C40.5487 33.0742 40.93 33 41.315 33C41.7001 33 42.0814 33.0742 42.4371 33.2185C42.7929 33.3627 43.1161 33.5741 43.3884 33.8407C43.6607 34.1072 43.8767 34.4236 44.024 34.7718C44.1714 35.1201 44.2472 35.4933 44.2472 35.8702V48.8575L47.5277 46.3441C54.6311 40.8304 63.4343 37.8369 72.5 37.8524C83.2373 37.865 93.5312 42.0457 101.124 49.4776C108.716 56.9095 112.987 66.9857 113 77.496C113 77.7022 113 77.9083 113 78.1065C112.987 78.8048 112.695 79.4703 112.186 79.9596C111.677 80.449 110.992 80.7231 110.278 80.723Z" fill="#EBEBE9"/>
<path d="M103.28 122C102.501 121.998 101.756 121.694 101.206 121.154C100.656 120.615 100.348 119.884 100.348 119.122V106.539L97.1077 108.981C90.0578 114.299 81.4003 117.17 72.4999 117.14C61.7619 117.129 51.4668 112.949 43.8739 105.517C36.281 98.0843 32.0106 88.0068 31.9999 77.4959C31.9934 77.0754 32.0725 76.6579 32.2324 76.2676C32.3924 75.8773 32.63 75.5221 32.9315 75.2225C33.233 74.923 33.5924 74.6851 33.9887 74.5227C34.3849 74.3604 34.8103 74.2768 35.2399 74.2769C35.5889 74.2799 35.9337 74.3516 36.2538 74.4878C36.5738 74.624 36.8626 74.8219 37.1029 75.0697C37.3626 75.3199 37.5682 75.6188 37.7073 75.9484C37.8465 76.2781 37.9164 76.6318 37.9129 76.9885C37.8941 78.4396 37.9644 79.8905 38.1235 81.3334C40.027 98.2058 55.1335 111.463 72.5404 111.463H72.8482C80.1462 111.415 87.2391 109.094 93.0982 104.834L97.9825 101.187H83.1271C82.375 101.148 81.6668 100.829 81.1484 100.294C80.63 99.7591 80.341 99.05 80.341 98.3128C80.341 97.5756 80.63 96.8665 81.1484 96.3318C81.6668 95.797 82.375 95.4773 83.1271 95.4386H103.28C104.059 95.4407 104.806 95.7446 105.357 96.2839C105.908 96.8232 106.218 97.5541 106.22 98.3168V119.122C106.218 119.884 105.908 120.615 105.357 121.155C104.806 121.694 104.059 121.998 103.28 122Z" fill="#EBEBE9"/>
</g>
<defs>
<clipPath id="clip0_905_5">
<rect width="81" height="89" fill="white" transform="translate(32 33)"/>
</clipPath>
</defs>
</svg>
