<svg xmlns="http://www.w3.org/2000/svg" viewBox="0 0 86 78"><defs><style>.cls-1{fill:#5d58b8;}</style></defs><g id="Layer_2" data-name="Layer 2"><g id="Layer_1-2" data-name="Layer 1"><path class="cls-1" d="M18,78a3,3,0,0,1-.4,0h-.21l-.24-.1-.23,0a2.32,2.32,0,0,1-.58-.16l-.5-.19-.34-.2a2.84,2.84,0,0,1-.67-.43l-.12-.11,0,0-.17-.13-.26-.28-.12-.11L14,76l-.14-.18a2.2,2.2,0,0,1-.36-.5,2.29,2.29,0,0,1-.13-.27l-.06-.12a1.57,1.57,0,0,1-.16-.46h0a2,2,0,0,1-.19-.55,2.11,2.11,0,0,1-.08-.64V45.46c0-1.81.94-2.69,2.87-2.69H27.11a2.93,2.93,0,0,1,.68-.06,2.64,2.64,0,0,1,1.61.65,2,2,0,0,1,.55.72,2,2,0,0,1,.22.87,2.31,2.31,0,0,1-.08.69,1.57,1.57,0,0,1-.51,1l-.37.33a1.31,1.31,0,0,0-.23.31l-.13.25c-.05.12-.11.23-.18.37l0,.05,0,.06a1.25,1.25,0,0,0-.09.29,1.47,1.47,0,0,0-.09.4v.56c0,.11,0,.22,0,.32s0,.11,0,.16,0,0,.05.1a5.42,5.42,0,0,1,.22.56,1,1,0,0,0,.15.29l0,0,0,.06a2,2,0,0,0,.16.2l.21.25,0,.05,0,.06a1.2,1.2,0,0,0,.11.1l.11.08.28.21a2.26,2.26,0,0,0,.2.13,3,3,0,0,0,.44.25l.37.13.2.07c.24.07.46.11.69.16a2.08,2.08,0,0,0,.53,0l.26,0,.37,0,.65-.14a2.66,2.66,0,0,0,.4-.11,3.87,3.87,0,0,1,.36-.2l.26-.14a2.88,2.88,0,0,0,.41-.27l.18-.19c.1-.11.2-.21.32-.32a2,2,0,0,0,.17-.23l.09-.12.08-.15a1.52,1.52,0,0,0,.11-.2l.19-.68a5.35,5.35,0,0,0,.09-.74,5.31,5.31,0,0,0-.11-.82,1.49,1.49,0,0,0-.23-.59,3.45,3.45,0,0,0-.54-.73l-.16-.22A2.31,2.31,0,0,1,34.77,44a2.76,2.76,0,0,1,2.77-1.33H47V37.4a16.28,16.28,0,0,1-2,.13A8.34,8.34,0,0,1,37.6,34l0-.05,0,0-.26-.44c-.11-.17-.21-.33-.31-.52a8.28,8.28,0,0,1-.5-1.14,6.73,6.73,0,0,1-.29-1.18,6.88,6.88,0,0,1-.08-1.25,6.35,6.35,0,0,1,.14-1.25,9.22,9.22,0,0,1,.86-2.26,5.7,5.7,0,0,1,.75-1.08,8.35,8.35,0,0,1,6.94-3.2,14,14,0,0,1,2.17.18l-.06-7.71a1.36,1.36,0,0,1,.1-.56,1.44,1.44,0,0,1,.42-.75,1.18,1.18,0,0,1,.19-.22,1.26,1.26,0,0,1,.28-.2l.11-.11.12,0a2.43,2.43,0,0,1,.28-.1l.19-.09h.15a1.43,1.43,0,0,1,.41-.06H54c8.81,0,17.73,0,26.36,0a1.57,1.57,0,0,1,.87.21h.24l.23.1.23,0a2.32,2.32,0,0,1,.58.16,4.54,4.54,0,0,1,.51.2,2.79,2.79,0,0,1,.33.19,2.89,2.89,0,0,1,.67.42l.13.12,0,0,.07,0a1.73,1.73,0,0,1,.36.32l.13.11.12.19a1.19,1.19,0,0,1,.15.18,2.43,2.43,0,0,1,.35.49l.14.28s0,.09,0,.12a2,2,0,0,1,.17.47h0a2.07,2.07,0,0,1,.18.55,1.89,1.89,0,0,1,.09.64V73.35a1.56,1.56,0,0,1-.06.42V74l-.09.16q0,.09-.06.21a2,2,0,0,1-.19.55,3.33,3.33,0,0,1-.22.46,2,2,0,0,1-.24.33,2.22,2.22,0,0,1-.47.61l-.12.1,0,0-.16.16a3,3,0,0,1-.3.23l-.12.1-.22.12-.22.15a2.32,2.32,0,0,1-.53.3l-.29.11-.14.06a1.89,1.89,0,0,1-.45.13l-.2.08h-.2l-.22,0a2.53,2.53,0,0,1-.65.07Zm62-4.64A2.28,2.28,0,0,0,81,73.23a2.76,2.76,0,0,0,0-.58V47.47H70.89a2.18,2.18,0,0,1-.7-.13,2.25,2.25,0,0,1-.91-.52,3,3,0,0,1-.52-.65l0-.07,0-.07a2.09,2.09,0,0,1-.19-.8,2.17,2.17,0,0,1,.08-.66,1.81,1.81,0,0,1,.28-.69l.07-.12.15-.17.32-.29a5.75,5.75,0,0,0,.46-.59c.06-.11.15-.32.25-.54l.14-.64v-.79a.47.47,0,0,0,0-.17l-.06-.17v-.17L70,39.57a.79.79,0,0,0-.12-.2l-.08-.11,0-.14-.08-.06-.1-.14a1.81,1.81,0,0,0-.24-.24l-.13-.1-.22-.16-.4-.23-.1,0a1.21,1.21,0,0,0-.2-.09l-.57-.17-.14,0-.28,0-.28,0-.13,0h-.57a1,1,0,0,0-.27,0l-.14,0H65.7a1.54,1.54,0,0,0-.27.07l-.57.17a1.18,1.18,0,0,0-.27.12l-.11.07-.12,0-.11.07c-.09.08-.2.16-.31.24l-.13.1-.11.11-.26.28a1.47,1.47,0,0,0-.25.25c0,.06-.2.25-.2.25l-.09.24-.1.07-.22.59a1.39,1.39,0,0,0-.06.19v.47c0,.13,0,.23,0,.32l.06.26.17.51a3.72,3.72,0,0,1,.22.38l.19.29.18.19.11.12a2.36,2.36,0,0,1,.52.59l0,.07.1.23c0,.09.08.18.12.29a2.13,2.13,0,0,1,.12.79,1.66,1.66,0,0,1-.16.72l-.08.24-.22.24-.2.23a1.71,1.71,0,0,1-.86.6,2.52,2.52,0,0,1-.79.15H51.9v5a11.15,11.15,0,0,1,2-.19,9,9,0,0,1,6.81,3,11.22,11.22,0,0,1,.79,1l.17.3a5.3,5.3,0,0,1,.4.79,4.18,4.18,0,0,1,.44,1.17,4.11,4.11,0,0,1,.16.81,2.7,2.7,0,0,0,0,.28l0,.09v1.25l-.22,1.19-.4,1.07a5.77,5.77,0,0,1-.61,1.18A8.74,8.74,0,0,1,54,68.38a12.07,12.07,0,0,1-2.11-.19v5.17Zm-62.2-1c0,.67.08.82.1.84s.2.13,1.08.13h28V64.37a1.92,1.92,0,0,1,.16-.72l0-.13.11-.19.08-.11a3.27,3.27,0,0,1,.28-.35,1.94,1.94,0,0,1,.72-.53l.07,0,.13-.23h.59a3,3,0,0,1,.65.06,1.74,1.74,0,0,1,1,.42l.37.34a2.49,2.49,0,0,0,.41.28l.08,0,.07.06.13.05.34.17a1.07,1.07,0,0,0,.33.11l.26,0,.43.07a3.7,3.7,0,0,0,.94,0l.1,0h.12a1.54,1.54,0,0,0,.33-.06l.13,0,.07,0a1.42,1.42,0,0,0,.27-.09l.09,0,.13-.05a1.21,1.21,0,0,0,.2-.09l0,0,.28-.16.17-.15.24-.07s0,0,.05-.07l.38-.34a1.53,1.53,0,0,1,.31-.39l.11-.13.07-.11a.58.58,0,0,0,.11-.2c0-.11.08-.2.12-.29l.09-.21c0-.1,0-.18.06-.25a1.08,1.08,0,0,1,0-.19v-.51a2.07,2.07,0,0,1,0-.23,1.49,1.49,0,0,1-.06-.25l-.07-.17v-.25l-.07-.1c0-.07-.13-.31-.16-.39l0,0a3,3,0,0,1-.3-.39L56.54,58l-.37-.33a2.23,2.23,0,0,1-.32-.19l-.12-.07-.36-.14-.2-.06-.3-.11-.26-.08-.06,0h-.21l-.2-.08h-.89a2.1,2.1,0,0,1-.36.09l-.14,0-.2.06-.3.11a1.21,1.21,0,0,0-.2.09l0,0a2.62,2.62,0,0,1-.28.17l-.17.15-.24.07s0,0-.05.07a3,3,0,0,1-1.88.78,2.17,2.17,0,0,1-1.14-.31,2.25,2.25,0,0,1-1-.95,2.44,2.44,0,0,1-.38-1.22c0-1.49,0-3,0-4.55,0-.75,0-1.5,0-2.24V47.47h-6c.58,3.82-.62,6.48-3.69,8.33-.38.2-.71.38-1.11.56a10.7,10.7,0,0,1-1.23.43,8.55,8.55,0,0,1-1.28.26,8.86,8.86,0,0,1-1.33.07A9.94,9.94,0,0,1,30.89,57a9.13,9.13,0,0,1-1.26-.26,5.93,5.93,0,0,1-1.25-.47l-.24-.13a5.65,5.65,0,0,1-.87-.5c-2.94-1.86-4.12-4.57-3.52-8.23h-6ZM81.12,42.66l-.06-5.9V17.61c0-.9,0-.9-1.12-.9H51.78v8.93a1.82,1.82,0,0,1-.22.86,1.87,1.87,0,0,1-.49.73,2.72,2.72,0,0,1-.57.42,1.85,1.85,0,0,1-1,.28l-.33,0a1.43,1.43,0,0,1-.46-.07,5.53,5.53,0,0,1-.62-.21,2.76,2.76,0,0,1-.64-.45l-.15-.14-.3-.17-.05,0-.09-.06a2.1,2.1,0,0,0-.33-.17l-.15-.06-.29-.11a1.46,1.46,0,0,1-.44-.12h-.21l-.16-.08h-.38a2.51,2.51,0,0,1-.59.06h-.1a2,2,0,0,1-.38.1l-.42.15-.06,0-.06,0a1.68,1.68,0,0,0-.31.12l-.23.14a1.33,1.33,0,0,1-.19.14l-.08.06-.31.28-.21.23-.13.17-.08.14-.14.13a1.76,1.76,0,0,0-.1.2l-.13.27s-.12.25-.15.32,0,.14-.06.22,0,.13,0,.17V30a1.3,1.3,0,0,1,0,.13,1.16,1.16,0,0,1,.07.24l.09.16v.16l.13.28,0,.08a2.89,2.89,0,0,1,.27.43l.15.17.15.18.12.11.06.08.19.15a2,2,0,0,0,.16.14,2.06,2.06,0,0,1,.3.17l.14.09a2.36,2.36,0,0,0,.32.16l.15.06.3.11a1.42,1.42,0,0,1,.43.12h.22l.16.08h.52a2.24,2.24,0,0,1,.44-.06h.11a1.89,1.89,0,0,1,.37-.1l.42-.15.06,0h.07a2.33,2.33,0,0,0,.3-.12l.23-.15.19-.14h0a2.25,2.25,0,0,1,.37-.34L47.8,32l.16-.15.22-.06.2-.07a1.75,1.75,0,0,1,.3-.1,2.78,2.78,0,0,1,.85-.1,2.2,2.2,0,0,1,.69.12,2.14,2.14,0,0,1,.91.53,2,2,0,0,1,.55.71,1.9,1.9,0,0,1,.22.87,2.65,2.65,0,0,1-.06.65V42.6h5.85c-.66-3.09.43-5.82,3.22-7.93A9.8,9.8,0,0,1,62,34l.33-.16a6.39,6.39,0,0,1,.86-.35,5.29,5.29,0,0,1,1.27-.38,5.92,5.92,0,0,1,1.31-.19,4.92,4.92,0,0,1,.67,0,5.87,5.87,0,0,1,.74,0l1.19.17h.07l.07,0,.33.09a5.34,5.34,0,0,1,.91.3c.41.18.8.36,1.13.53,3.59,2,5.07,4.95,4.32,8.64ZM13.49,38.2a5.74,5.74,0,0,1-.92-.05,5,5,0,0,1-.92-.14,4.14,4.14,0,0,1-.94-.29,3.54,3.54,0,0,1-.39-.19l-.3-.14a4,4,0,0,1-.82-.46,3.74,3.74,0,0,1-.75-.55A2.78,2.78,0,0,1,8.09,36L8,35.81l0,0-.05-.06a5.32,5.32,0,0,1-.5-.69,4.75,4.75,0,0,1-.58-1,5.39,5.39,0,0,1-.38-1l-.21-1V31a5.41,5.41,0,0,1,.15-1.12,6,6,0,0,1,.38-1A3.89,3.89,0,0,1,7,28.2l-1.37-.5c-1.3-.44-2.56-.89-3.81-1.34l-.19-.07-.2-.07a2.45,2.45,0,0,1-.57-.34,1.49,1.49,0,0,1-.45-.48c-.08-.11-.13-.18-.19-.28A1.7,1.7,0,0,1,0,24.29V24a1.36,1.36,0,0,1,.07-.43,1.24,1.24,0,0,1,.23-.65c1.47-3.28,3-6.62,4.43-10S7.66,6.27,9.15,3a1.87,1.87,0,0,1,.22-.54,1.77,1.77,0,0,1,.57-.64l0,0a1,1,0,0,1,.26-.31l.11-.21.23-.1A1,1,0,0,1,10.78,1a1.85,1.85,0,0,1,.37-.26,3.06,3.06,0,0,1,.43-.23L12,.31a2.65,2.65,0,0,1,.37-.12l.2-.09h.21l.15,0a2.11,2.11,0,0,1,.6-.07h.59l.12.06A1.82,1.82,0,0,1,15,.2l.18,0a2.26,2.26,0,0,1,.57.18l11.29,4L34.2,7.08c1.23.44,2.48.89,3.78,1.34A2.85,2.85,0,0,1,39.8,9.83,2.72,2.72,0,0,1,39.64,12l-.56,1.28c-.95,2-1.88,4.12-2.82,6.19a2.38,2.38,0,0,1-.74,1,2.58,2.58,0,0,1-1.08.64,2.13,2.13,0,0,1-.64.1,2.63,2.63,0,0,1-2.08-1.28l-.08-.11-.1-.2,0,0-.07-.09-.31-.28L30.79,19l-.25-.11-.16-.06-.44-.13-.33,0-.13,0h-.1l-.13,0h-.4l-.27.07a1.89,1.89,0,0,0-.4.13l-.56.34a1.21,1.21,0,0,0-.22.14l-.06.08-.07.05-.17.21c0,.08-.08.16-.12.24a.67.67,0,0,0-.06.12l-.05.11,0,0a3,3,0,0,1-.11.39v.22a1.7,1.7,0,0,0,0,.24c0,.07.06.18.1.3s.05.16.08.23a2.73,2.73,0,0,0,.17.26,2.88,2.88,0,0,0,.31.3l.07.07.07.08s.13.08.2.13a2.34,2.34,0,0,0,.34.18l.5.13.24,0,.22,0h.35l.23,0a4.83,4.83,0,0,1,.92-.11,3,3,0,0,1,2.29.66l.09.09.06.1a3.63,3.63,0,0,1,.41,1,2.4,2.4,0,0,1,0,1.16l0,.08,0,.15c-1.23,2.95-2.52,5.8-3.51,8a2.36,2.36,0,0,1-2.23,1.55,3.81,3.81,0,0,1-1.25-.24l-4.7-1.69-.69-.24a6.94,6.94,0,0,1-6.28,5A7,7,0,0,1,13.49,38.2Zm-1.23-4.91a1,1,0,0,0,.21.09l.56.17a1.54,1.54,0,0,0,.27.07h.84l.56-.17a.64.64,0,0,0,.21-.09l.21-.16a.71.71,0,0,0,.14-.1.65.65,0,0,0,.11-.12l.18-.2.15-.18.09-.23.1-.07a.36.36,0,0,1,0-.09q0-.18.06-.3a3.73,3.73,0,0,0-.05-.69,3.74,3.74,0,0,1-.08-1v-.11A2.5,2.5,0,0,1,16.64,28l.08-.05a3,3,0,0,1,1.51-.39l.38,0h.46l.14,0,.3.1.07,0h.06L26,30l1.23-2.77A6.84,6.84,0,0,1,21.7,22l0-.12a3.61,3.61,0,0,1-.12-.89V20.2a3.61,3.61,0,0,1,.12-.89l0-.12a4.7,4.7,0,0,1,.31-1l.2-.4c.07-.14.14-.29.21-.41a4.81,4.81,0,0,1,.61-.83,8.12,8.12,0,0,1,.72-.72,8.27,8.27,0,0,1,.8-.59A7.93,7.93,0,0,1,29,13.8a8.3,8.3,0,0,1,3.72.94L34,11.94l-2.19-.79Q27.35,9.53,22.9,8L14.09,4.8l-.32-.09a1.78,1.78,0,0,0-.11.21c-1.26,2.87-2.53,5.72-3.81,8.58S7.34,19.13,6.1,22l-.33.8,6.05,2.13h0L12,25A2.66,2.66,0,0,1,14,27a2.37,2.37,0,0,1-1.49,2.44l-.32.18-.19.13-.13.1L11.8,30a1.8,1.8,0,0,1-.19.2,2.11,2.11,0,0,1-.15.19l-.08.23-.11.07,0,.09a3,3,0,0,1-.12.51.74.74,0,0,0,0,.15,2.76,2.76,0,0,1,.06.51l.06.15a2.62,2.62,0,0,0,.19.37l0,.07,0,.07.08.07.1.13a1.09,1.09,0,0,0,.24.24,2,2,0,0,0,.26.21Z"/></g></g></svg>